<svg xmlns="http://www.w3.org/2000/svg" xmlns:xlink="http://www.w3.org/1999/xlink" width="497" height="284" viewBox="0 0 497 284"><defs><style>.a{fill:#fff;}.b{filter:url(#a);}</style><filter id="a" x="0" y="0" width="497" height="284" filterUnits="userSpaceOnUse"><feOffset dx="3" dy="3" input="SourceAlpha"/><feGaussianBlur stdDeviation="3" result="b"/><feFlood flood-opacity="0.71"/><feComposite operator="in" in2="b"/><feComposite in="SourceGraphic"/></filter></defs><g class="b" transform="matrix(1, 0, 0, 1, 0, 0)"><path class="a" d="M51.309-12.537,36.51-137.381H14.593L-.206-12.537H17.216l1.873-21.37H30.516l1.124,21.37ZM29.017-51.715H20.962l4.683-51.737Zm71.934,15.559v-76.856c0-17.433-10.865-24.369-22.667-24.369H52.808V-12.537H78.285C90.087-12.537,100.952-18.723,100.952-36.156Zm-19.295-.75c0,4.5-1.686,6.561-5.058,6.561H72.1v-89.041h4.5c3.372,0,5.058,2.062,5.058,6.373ZM174.2-12.537V-137.381H149.282L143.1-88.268l-2.435,28.306-2.623-28.306L131.3-137.381H106.009V-12.537h16.86v-95.04l2.248,28.493,7.119,66.546h12.738l8.055-66.546,2.623-28.493v95.04Zm25.289,0V-137.381H180.192V-12.537Zm56.573,0V-137.381h-16.3V-63.9l-3.747-17.433-12.364-56.049H205.294V-12.537h16.485V-86.019l4.309,17.058,14.05,56.424Zm25.1,0V-137.381H261.867V-12.537Zm51.515-25.681c0-14.621-8.242-29.43-16.485-43.489-7.868-13.872-12.176-18.933-12.176-33.367,0-4.311,2.623-6.373,5.807-6.373,3,0,5.245,2.249,5.245,6.373v15.559h16.672V-113.2c0-16.5-8.8-26.056-21.917-26.056-16.86,0-24.915,12.559-24.915,28.118,0,14.434,9.928,31.68,17.234,43.3,7.306,12.559,11.8,21.37,11.8,32.617,0,4.686-2.061,7.5-6.182,7.5-4.309,0-6.369-3-6.369-7.5V-49.84h-16.86v13.122c0,16.683,9.179,26.056,24.165,26.056C320.876-10.662,332.677-18.723,332.677-38.218Zm46.083-80.231v-18.933H331.366v18.933h14.05V-12.537h19.295V-118.449ZM429.9-12.537V-13.1a90.768,90.768,0,0,1-2.435-20.245V-58.65c0-6.186-3.747-10.872-8.8-14.247,5.058-3.374,8.243-8.248,8.243-14.059v-28.493c0-16.309-10.678-21.932-20.232-21.932H380.634V-12.537h19.295V-64.649h4.683c2.623,0,4.121,2.624,4.121,5.624v27.181c0,7.123,1.686,19.308,4.683,19.308Zm-21.73-73.857c0,3.937-1.124,5.249-3.372,5.249h-4.871v-38.616H404.8c2.248,0,3.372,1.5,3.372,5.249Zm70.623,73.857L464-137.381H442.078l-14.8,124.845H444.7l1.873-21.37H458l1.124,21.37ZM456.5-51.715h-8.055l4.683-51.737ZM48.312,12.772V.025H2.229V12.772H18.9v112.1H32.2V12.772Zm51.89,88.854V.025H87.089v102.35c0,7.686-3.372,11.622-10.3,11.622s-10.3-3.937-10.3-11.622V.025H53v101.6c0,15.371,9.928,25.119,23.6,25.119C90.087,126.744,100.2,117,100.2,101.625Zm68.375.562V.025h-13.3V103.312c0,6.748-2.623,10.5-8.992,10.5s-9.179-3.749-9.179-10.5V75.194H124.368V102.75c0,14.809,8.43,23.994,22.292,23.994C160.9,126.744,168.577,116.809,168.577,102.187Zm56.2-.562V.025H211.663v102.35c0,7.686-3.372,11.622-10.3,11.622s-10.3-3.937-10.3-11.622V.025H177.569v101.6c0,15.371,9.928,25.119,23.6,25.119C214.66,126.744,224.776,117,224.776,101.625Zm49.267,23.244V112.31H247.817V66.384h18.92V54.2h-18.92V12.584h26.226V.025H234.33V124.869Zm53.763,0V62.822H304.765v11.81h9.928v28.493c0,6.373-3.559,11.435-10.678,11.435-7.306,0-10.49-5.061-10.49-11.435V21.769c0-5.624,3.559-10.685,10.49-10.685s10.3,4.874,10.3,10.5V40.7h12.364V23.831c0-15.184-8.055-25.681-22.667-25.681S280.038,9.21,280.038,23.831v77.231c0,16.5,9.741,25.681,21.73,25.681,7.68,0,13.862-3.187,16.672-9.373l3.559,7.5Zm55.262-24.182V24.206c0-15-9.366-26.056-23.978-26.056S335.113,9.21,335.113,24.206v76.482c0,15.184,9.366,26.056,23.978,26.056S383.069,115.872,383.069,100.688Zm-13.3,1.875c0,6.561-3.747,11.247-10.678,11.247s-10.49-4.686-10.49-11.247V22.332c0-6.373,3.559-11.247,10.49-11.247s10.678,4.874,10.678,11.247Z" transform="translate(6.21 145.26)"/></g></svg>