<svg xmlns="http://www.w3.org/2000/svg" width="32" height="32" viewBox="0 0 32 32"><defs><style>.a,.b{fill:none;}.b{stroke:#fff;stroke-linecap:round;stroke-linejoin:round;stroke-width:1.5px;}</style></defs><rect class="a" width="32" height="32"/><g transform="translate(-0.5 -0.5)"><path class="b" d="M22.5,18A4.5,4.5,0,1,1,18,13.5,4.5,4.5,0,0,1,22.5,18Z" transform="translate(-1.379 -1.379)"/><path class="b" d="M26.793,20.745a2.268,2.268,0,0,0,.454,2.5l.082.082a2.751,2.751,0,1,1-3.89,3.89l-.082-.082a2.287,2.287,0,0,0-3.876,1.622v.234a2.749,2.749,0,1,1-5.5,0v-.124A2.268,2.268,0,0,0,12.5,26.793a2.268,2.268,0,0,0-2.5.454l-.082.082a2.751,2.751,0,1,1-3.89-3.89l.082-.082A2.287,2.287,0,0,0,4.483,19.48H4.249a2.749,2.749,0,1,1,0-5.5h.124A2.268,2.268,0,0,0,6.449,12.5,2.268,2.268,0,0,0,6,10l-.082-.082A2.751,2.751,0,1,1,9.8,6.023l.082.082a2.268,2.268,0,0,0,2.5.454h.11a2.268,2.268,0,0,0,1.375-2.076V4.249a2.749,2.749,0,1,1,5.5,0v.124A2.287,2.287,0,0,0,23.247,6l.082-.082A2.751,2.751,0,1,1,27.22,9.8l-.082.082a2.268,2.268,0,0,0-.454,2.5v.11a2.268,2.268,0,0,0,2.076,1.375h.234a2.749,2.749,0,1,1,0,5.5h-.124a2.268,2.268,0,0,0-2.076,1.375Z" transform="translate(0 0)"/></g></svg>