<svg xmlns="http://www.w3.org/2000/svg" width="72" height="72" viewBox="0 0 72 72"><defs><style>.a{fill:none;}.b{fill:#0E0C5A;}</style></defs><g transform="translate(0)"><rect class="a" width="72" height="72"/><g transform="translate(0 0)"><g transform="translate(0 0)"><path class="b" d="M1540.933,142.1h-21.8a1.049,1.049,0,0,0,0,2.1h21.8a1.049,1.049,0,0,0,0-2.1Z" transform="translate(-1495.034 -134.999)"/><path class="b" d="M1540.933,144.839h-21.8a1.049,1.049,0,0,0,0,2.1h21.8a1.049,1.049,0,0,0,0-2.1Z" transform="translate(-1495.034 -131.599)"/><path class="b" d="M1561.57,160.626h-6.231v-2.931a7.011,7.011,0,0,0-7-7h-11.8a7.011,7.011,0,0,0-7,7v2.931H1523.3a5.664,5.664,0,0,0-5.663,5.665v24a5.669,5.669,0,0,0,5.663,5.663h38.271a5.67,5.67,0,0,0,5.665-5.663v-4.55a1.05,1.05,0,0,0-2.1,0v4.55a3.568,3.568,0,0,1-3.564,3.565H1523.3a3.568,3.568,0,0,1-3.565-3.565V175.417a9.4,9.4,0,0,0,6.941,3.486v1.6a3.836,3.836,0,1,0,7.671,0V178.91h16.175V180.5a3.837,3.837,0,0,0,7.673,0v-1.6a9.4,9.4,0,0,0,6.939-3.486V186.6a1.05,1.05,0,0,0,2.1,0V166.289a5.664,5.664,0,0,0-5.665-5.663Zm-29.939-2.931a4.908,4.908,0,0,1,4.9-4.9h11.8a4.91,4.91,0,0,1,4.906,4.9v2.931h-2.187v-2.931a2.721,2.721,0,0,0-2.718-2.718h-11.8a2.722,2.722,0,0,0-2.718,2.718v2.931h-2.186Zm4.284,2.931v-2.931a.621.621,0,0,1,.62-.618h11.8a.62.62,0,0,1,.62.618v2.931Zm-3.668,19.879a1.736,1.736,0,1,1-3.473,0v-3.75a1.736,1.736,0,1,1,3.473,0Zm23.849,0a1.736,1.736,0,1,1-3.473,0v-3.75a1.736,1.736,0,1,1,3.473,0Zm2.1-3.7v-.047a3.837,3.837,0,0,0-7.673,0v.056h-16.175v-.056a3.836,3.836,0,0,0-7.671,0v.047a7.321,7.321,0,0,1-6.941-7.3v-3.211a3.565,3.565,0,0,1,3.565-3.565h38.271a3.565,3.565,0,0,1,3.564,3.565V169.5a7.321,7.321,0,0,1-6.939,7.3Z" transform="translate(-1495.584 -124.348)"/><path class="b" d="M1528.486,208.436h-15.508a3.094,3.094,0,0,1-3.092-3.092V154.931a3.149,3.149,0,0,1,.072-.667h9.552a3.619,3.619,0,0,0,3.616-3.616V141.1a3.139,3.139,0,0,1,.667-.072h35.586a3.1,3.1,0,0,1,3.09,3.092v18.007a1.05,1.05,0,1,0,2.1,0V144.116a5.2,5.2,0,0,0-5.19-5.19h-35.588a5.156,5.156,0,0,0-3.67,1.52l-10.815,10.813a5.165,5.165,0,0,0-1.518,3.672v50.413a5.194,5.194,0,0,0,5.19,5.19h15.508a1.049,1.049,0,1,0,0-2.1Zm-7.458-65.928v8.139a1.52,1.52,0,0,1-1.518,1.518h-8.139Z" transform="translate(-1507.788 -138.926)"/></g></g></g></svg>