<svg xmlns="http://www.w3.org/2000/svg" width="32" height="32" viewBox="0 0 32 32"><defs><style>.a{fill:none;}.b{fill:#fff;}</style></defs><g transform="translate(-1)"><rect class="a" width="32" height="32" transform="translate(1)"/><g transform="translate(1 -32.785)"><g transform="translate(0 33.785)"><g transform="translate(9.51 7.673)"><path class="b" d="M163.948,150.316H147.355a2.934,2.934,0,0,0-2.924,2.923v16.206a2.934,2.934,0,0,0,2.924,2.924h16.593a2.934,2.934,0,0,0,2.924-2.924V153.239A2.925,2.925,0,0,0,163.948,150.316Zm1.35,3.292v15.876a1.064,1.064,0,0,1-1.06,1.06H147.322a1.064,1.064,0,0,1-1.06-1.06V153.207a1.064,1.064,0,0,1,1.06-1.06h16.916a1.064,1.064,0,0,1,1.06,1.06Z" transform="translate(-144.431 -150.316)"/></g><g transform="translate(0 0)"><path class="b" d="M12.223,39.654H23.279l-1.633-4.24a2.929,2.929,0,0,0-3.924-1.323L1.629,40.74A2.929,2.929,0,0,0,.305,44.664L4.967,60.482A2.93,2.93,0,0,0,8.358,62.01a4.4,4.4,0,0,1-.619-2.258V44.145A4.5,4.5,0,0,1,12.223,39.654Z" transform="translate(0 -33.785)"/></g></g></g></g></svg>