<svg xmlns="http://www.w3.org/2000/svg" width="32" height="32.452" viewBox="0 0 32 32.452"><defs><style>.a{fill:none;}.b{fill:#0E0C5A;}</style></defs><g transform="translate(-1 -2)"><rect class="a" width="32" height="32" transform="translate(1 2)"/><g transform="translate(-550.222 -71.9)"><g transform="translate(552.222 74.9)"><path class="b" d="M674.968,214.4H662.99a8.668,8.668,0,0,1,.02,1.111h11.959a3.291,3.291,0,0,1,3.287,3.287v9.767a3.3,3.3,0,0,1-1.8,2.929c-.093.048-.183.1-.275.145l-.178.091a.932.932,0,0,1-.171.087.713.713,0,0,0-.183.118.674.674,0,0,0-.148.462,7.08,7.08,0,0,0,.031.875l.142,1.769a4.555,4.555,0,0,1-2.469-.9,6.93,6.93,0,0,1-1.184-1.2c-.294-.381-.5-.971-1.016-1.092a.179.179,0,0,0-.073,0,1.378,1.378,0,0,1-.21.007h-9.8a3.291,3.291,0,0,1-3.287-3.287v-7.337a9.3,9.3,0,0,0-1.111.831v6.506a4.4,4.4,0,0,0,4.4,4.4h9.668c.427.522.881,1.027,1.356,1.5a6.159,6.159,0,0,0,1.225,1,7.062,7.062,0,0,0,3.066.74l.652.054-.288-3.593a4.378,4.378,0,0,0,2.764-4.1V218.8A4.4,4.4,0,0,0,674.968,214.4Z" transform="translate(-649.373 -204.812)"/><g transform="translate(18.478 14.776)"><path class="b" d="M828.292,289.506h-8.259c-.2,0-.365-.249-.365-.555s.163-.555.365-.555h8.259c.2,0,.365.249.365.555S828.494,289.506,828.292,289.506Z" transform="translate(-819.669 -288.395)"/></g><g transform="translate(17.016 18.981)"><path class="b" d="M808.7,350.258h-9.721c-.2,0-.365-.249-.365-.555s.163-.555.365-.555H808.7c.2,0,.365.249.365.555S808.9,350.258,808.7,350.258Z" transform="translate(-798.613 -349.147)"/></g><g transform="translate(11.878 22.899)"><path class="b" d="M739.72,406.864H725.057a.565.565,0,0,1,0-1.111H739.72a.565.565,0,0,1,0,1.111Z" transform="translate(-724.594 -405.753)"/></g><g transform="translate(0 0)"><path class="b" d="M562.017,98.414a1.164,1.164,0,0,0,.571-.345,2.568,2.568,0,0,0,.371-1.349,3.756,3.756,0,0,1,.541-1.3c1.067-1.7,3.172-2.17,4.887-2.95a10.415,10.415,0,0,0,5.844-6.726,8.506,8.506,0,0,0-.952-6.383,8.961,8.961,0,0,0-.66-.994A8.761,8.761,0,0,0,566.913,75l-.125-.018a8.761,8.761,0,0,0-6.469,1.7,8.446,8.446,0,0,0-1.9,1.95,9.4,9.4,0,0,0-1.211,2.468,8.832,8.832,0,0,0-.252,1.025c0,.007,0,.014,0,.022l-.186,1.389a1.062,1.062,0,0,0,.911,1.192l3.334.446a1.062,1.062,0,0,0,1.192-.911l.183-1.364a3.34,3.34,0,0,1,3.68-2.487l.048.007a3.39,3.39,0,0,1,2.656,2.274,3.454,3.454,0,0,1-.977,3.643,8.64,8.64,0,0,1-2.013,1.086c-.715.352-1.451.677-2.151,1.059a16.3,16.3,0,0,0-4.139,2.582,6.977,6.977,0,0,0-.717.791,5.5,5.5,0,0,0-1.078,2.245c-.163.817-.183,1.705-.262,2.534-.061.637.165,1.286.892,1.383a21.2,21.2,0,0,0,3.209.475A1.908,1.908,0,0,0,562.017,98.414Z" transform="translate(-556.44 -74.9)"/><circle class="b" cx="2.868" cy="2.868" r="2.868" transform="translate(0 24.516)"/></g></g></g></g></svg>