<svg xmlns="http://www.w3.org/2000/svg" width="20" height="20" viewBox="0 0 20 20"><defs><style>.a{fill:#ff4545;}</style></defs><g transform="translate(-3.375 -3.375)"><path class="a" d="M23.295,21.705,19.589,18l3.705-3.705a1.124,1.124,0,0,0-1.589-1.589L18,16.411l-3.705-3.705a1.124,1.124,0,0,0-1.589,1.589L16.411,18l-3.705,3.705a1.086,1.086,0,0,0,0,1.589,1.116,1.116,0,0,0,1.589,0L18,19.589l3.705,3.705a1.129,1.129,0,0,0,1.589,0A1.116,1.116,0,0,0,23.295,21.705Z" transform="translate(-4.621 -4.62)"/><path class="a" d="M13.375,4.721a8.65,8.65,0,1,1-6.12,2.534,8.6,8.6,0,0,1,6.12-2.534m0-1.346a10,10,0,1,0,10,10,10,10,0,0,0-10-10Z"/></g></svg>