<svg xmlns="http://www.w3.org/2000/svg" xmlns:xlink="http://www.w3.org/1999/xlink" width="52" height="52" viewBox="0 0 52 52"><defs><style>.a{fill:#fff;}.b{fill:none;stroke:#7af99c;stroke-linecap:round;stroke-linejoin:round;stroke-width:1.5px;}.c{filter:url(#a);}</style><filter id="a" x="0" y="0" width="52" height="52" filterUnits="userSpaceOnUse"><feOffset dx="-1" dy="2" input="SourceAlpha"/><feGaussianBlur stdDeviation="2" result="b"/><feFlood flood-opacity="0.161"/><feComposite operator="in" in2="b"/><feComposite in="SourceGraphic"/></filter></defs><g transform="translate(7 4)"><g class="c" transform="matrix(1, 0, 0, 1, -7, -4)"><rect class="a" width="40" height="40" rx="10" transform="translate(7 4)"/></g><g transform="translate(5.5 5.5)"><path class="b" d="M22.278,24.5H6.722A2.222,2.222,0,0,1,4.5,22.278V6.722A2.222,2.222,0,0,1,6.722,4.5H18.944L24.5,10.056V22.278A2.222,2.222,0,0,1,22.278,24.5Z" transform="translate(0 0)"/><path class="b" d="M21.791,28.209V19.5H10.5v8.709" transform="translate(-1.646 -3.709)"/><path class="b" d="M10.5,4.5V9.943h8.709" transform="translate(-1.484)"/></g></g></svg>