<svg xmlns="http://www.w3.org/2000/svg" width="40" height="40" viewBox="0 0 40 40"><defs><style>.a{fill:none;}.b{fill:#0E0C5A;}</style></defs><g transform="translate(0 2)"><rect class="a" width="40" height="40" transform="translate(0 -2)"/><g transform="translate(0 -2)"><path class="b" d="M12.275,46.675H2.523A.523.523,0,0,1,2,46.152V19.473a.523.523,0,0,1,.523-.523h9.752a.523.523,0,0,1,.523.523V46.152A.523.523,0,0,1,12.275,46.675Zm-9.23-1.045h8.707V20H3.045Z" transform="translate(-2 -6.844)"/><path class="b" d="M61.614,53.655H51.862a.523.523,0,0,1-.523-.523V34.1a.523.523,0,0,1,.523-.523h9.752a.523.523,0,0,1,.523.523V53.133A.523.523,0,0,1,61.614,53.655Zm-9.23-1.045h8.707V34.618H52.384Z" transform="translate(-22.306 -13.825)"/><path class="b" d="M37.216,41.831H21.184a.547.547,0,0,1-.523-.569V2.569A.547.547,0,0,1,21.184,2H37.216a.547.547,0,0,1,.523.569V41.262A.547.547,0,0,1,37.216,41.831Zm-15.51-1.138H36.694V3.138H21.706Z" transform="translate(-9.285 -2)"/><path class="b" d="M36.872,59.758h-8.1a.523.523,0,0,1-.523-.523V46.88a.523.523,0,0,1,.523-.523h8.1a.523.523,0,0,1,.523.523V59.236A.523.523,0,0,1,36.872,59.758Zm-7.578-1.045h7.055V47.4H29.294Z" transform="translate(-12.907 -19.928)"/><path class="b" d="M12,32.58H8.687a.523.523,0,0,1-.523-.523v-3.31a.523.523,0,0,1,.523-.523H12a.523.523,0,0,1,.523.523v3.31A.523.523,0,0,1,12,32.58ZM9.211,31.535h2.264V29.27H9.209Z" transform="translate(-4.943 -13.138)"/><path class="b" d="M12,45.664H8.687a.523.523,0,0,1-.523-.523v-3.31a.523.523,0,0,1,.523-.523H12a.523.523,0,0,1,.523.523v3.31A.523.523,0,0,1,12,45.664ZM9.211,44.619h2.264V42.354H9.209Z" transform="translate(-4.943 -18.695)"/><path class="b" d="M12,58.747H8.687a.523.523,0,0,1-.523-.523v-3.31a.523.523,0,0,1,.523-.523H12a.523.523,0,0,1,.523.523v3.31A.523.523,0,0,1,12,58.747ZM9.211,57.7h2.264V55.437H9.209Z" transform="translate(-4.943 -23.763)"/><path class="b" d="M61.334,45.664H58.023a.523.523,0,0,1-.523-.523v-3.31a.523.523,0,0,1,.523-.523h3.31a.523.523,0,0,1,.523.523v3.31a.523.523,0,0,1-.521.523Zm-2.787-1.045h2.264V42.354H58.545Z" transform="translate(-25.247 -18.695)"/><path class="b" d="M61.334,58.747H58.023a.523.523,0,0,1-.523-.523v-3.31a.523.523,0,0,1,.523-.523h3.31a.523.523,0,0,1,.523.523v3.31a.523.523,0,0,1-.521.523ZM58.547,57.7h2.264V55.437H58.545Z" transform="translate(-25.247 -23.763)"/><path class="b" d="M30.1,11.993H26.788a.523.523,0,0,1-.523-.523V8.161a.523.523,0,0,1,.523-.523H30.1a.523.523,0,0,1,.523.523v3.31A.523.523,0,0,1,30.1,11.993Zm-2.787-1.045h2.264V8.683H27.31Z" transform="translate(-12.306 -4.692)"/><path class="b" d="M30.1,25.076H26.788a.523.523,0,0,1-.523-.523v-3.31a.523.523,0,0,1,.523-.523H30.1a.523.523,0,0,1,.523.523v3.31A.523.523,0,0,1,30.1,25.076Zm-2.787-1.045h2.264V21.766H27.31Z" transform="translate(-12.306 -9.951)"/><path class="b" d="M30.1,38.16H26.788a.523.523,0,0,1-.523-.523v-3.31a.523.523,0,0,1,.523-.523H30.1a.523.523,0,0,1,.523.523v3.31A.523.523,0,0,1,30.1,38.16Zm-2.787-1.045h2.264V34.85H27.31Z" transform="translate(-12.306 -15.508)"/><path class="b" d="M43.233,11.993H39.923a.523.523,0,0,1-.523-.523V8.161a.523.523,0,0,1,.523-.523h3.31a.523.523,0,0,1,.523.523v3.31A.523.523,0,0,1,43.233,11.993Zm-2.787-1.045h2.264V8.683H40.445Z" transform="translate(-17.885 -4.692)"/><path class="b" d="M43.233,25.076H39.923a.523.523,0,0,1-.523-.523v-3.31a.523.523,0,0,1,.523-.523h3.31a.523.523,0,0,1,.523.523v3.31A.523.523,0,0,1,43.233,25.076Zm-2.787-1.045h2.264V21.766H40.445Z" transform="translate(-17.885 -9.951)"/><path class="b" d="M43.233,38.16H39.923a.523.523,0,0,1-.523-.523v-3.31a.523.523,0,0,1,.523-.523h3.31a.523.523,0,0,1,.523.523v3.31A.523.523,0,0,1,43.233,38.16Zm-2.787-1.045h2.264V34.85H40.445Z" transform="translate(-17.885 -15.508)"/></g></g></svg>