<svg xmlns="http://www.w3.org/2000/svg" width="22.332" height="21.925" viewBox="0 0 22.332 21.925"><defs><style>.a{fill:#0E0C5A;}</style></defs><path class="a" d="M21.916,3.011H14.435V4.4H16.64v2.19H14.435v.7H16.64V9.477H14.435v.717H16.64v2.074H14.435V13.1H16.64v2.079H14.435v.831H16.64V18.1H14.435v1.525h7.481c.118-.035.217-.175.3-.417a2.04,2.04,0,0,0,.12-.592V3.264c0-.119-.041-.191-.12-.216A1.024,1.024,0,0,0,21.916,3.011ZM20.946,18.1H17.357V16.009h3.589V18.1Zm0-2.92H17.357V13.1h3.589Zm0-2.911H17.357V10.2h3.589v2.065Zm0-2.792H17.357V7.286h3.589V9.477h0Zm0-2.9H17.357V4.4h3.589V6.574ZM0,2.666V19.974l13.176,2.279V.329L0,2.673ZM7.81,15.759q-.075-.2-.705-1.734c-.418-1.02-.67-1.614-.743-1.783H6.338L4.924,15.607l-1.889-.127,2.241-4.187L3.224,7.1,5.15,7l1.273,3.276h.025L7.886,6.854l1.99-.126L7.506,11.26l2.443,4.623L7.81,15.757Z" transform="translate(0 -0.328)"/></svg>