<svg xmlns="http://www.w3.org/2000/svg" width="658.862" height="597.788" viewBox="0 0 658.862 597.788"><defs><style>.a{opacity:0.05;}.b{fill:#0E0C5A;}.c{opacity:0.997;isolation:isolate;}</style></defs><g class="a" transform="translate(-1042.548 386.511)"><g transform="translate(1489.981 -346.478) rotate(-20)"><path class="b" d="M137.349,500.705a51.518,51.518,0,1,1-51.573,51.463v-.095a51.573,51.573,0,0,1,51.573-51.369m-11.723,55.579c-.931,2.877-1.884,5.654-2.727,8.466A4.4,4.4,0,0,0,124.8,569.8a4.687,4.687,0,0,0,5.636-.276c2.317-1.652,4.606-3.332,6.883-4.989,2.381,1.759,4.616,3.471,6.908,5.1a4.668,4.668,0,0,0,7.557-2.618,5.991,5.991,0,0,0-.244-2.827c-.771-2.643-1.68-5.251-2.533-7.879l1.413-.993c1.861-1.3,3.765-2.543,5.574-3.912a4.516,4.516,0,0,0,.274-7.438,6.337,6.337,0,0,0-3.377-1.058c-2.8-.147-5.614-.05-8.4-.05-.878-2.742-1.707-5.345-2.553-7.933a4.736,4.736,0,0,0-9.235-.05c-.734,2.232-1.488,4.462-2.148,6.714-.274.933-.625,1.349-1.7,1.3a70.632,70.632,0,0,0-7.187,0,6.27,6.27,0,0,0-3.168.958,4.575,4.575,0,0,0,.3,7.672c2.207,1.605,4.464,3.128,6.818,4.755" transform="translate(-71.765 -500.705)"/><path class="b" d="M97.722,536.441a60.147,60.147,0,0,0,28.96,20.5c-2.663,6.258-5.29,12.462-7.933,18.656a4.671,4.671,0,0,1-8.871-.276c-1.866-5.129-3.83-10.225-5.485-15.423-.754-2.369-1.722-3.506-4.424-3.571-5.071-.117-10.135-.7-15.2-1.12a4.781,4.781,0,0,1-4.516-3.725,4.634,4.634,0,0,1,2.272-5.041c5.012-3.307,10.036-6.6,15.214-10" transform="translate(-80.146 -447.514)"/><path class="b" d="M114.133,556.875c3.188-1.443,6.378-2.737,9.421-4.3a57.628,57.628,0,0,0,18.7-15.286c.625-.774,1.04-.923,1.924-.333,4.606,3.091,9.269,6.094,13.885,9.145a4.813,4.813,0,0,1,2.4,5.35,5,5,0,0,1-4.686,3.581c-5.611.43-11.225.868-16.859,1.239a1.768,1.768,0,0,0-1.807,1.359c-1.983,5.7-4.071,11.4-6.114,17.073a4.74,4.74,0,0,1-9.177.323q-3.229-7.592-6.448-15.194c-.426-.993-.868-1.983-1.289-2.976" transform="translate(-29.64 -447.279)"/></g><g class="c" transform="translate(1042.548 -167.615)"><path class="b" d="M349.494,625.439c-.114,1.227-.2,2.369-.326,3.508a16.588,16.588,0,0,1-2.675,8.292,14.759,14.759,0,0,1-13.8,5.979,6.984,6.984,0,0,1-5.99-5.142c-.717-2-1.148-4.135-1.667-6.218a89.611,89.611,0,0,0-5.247-15.489,2.05,2.05,0,0,0-1.637-1.253,35.692,35.692,0,0,1-18.408-8.808c-1.53-1.556-2.817-3.348-4.277-4.982a2.665,2.665,0,0,0-1.457-.912,25.533,25.533,0,0,1-18.391-10.978,3.423,3.423,0,0,0-1.367-.973,29.61,29.61,0,0,1-18.691-28.41,29.082,29.082,0,0,1,15.119-25.989,3.855,3.855,0,0,0,1.789-2.054,31.235,31.235,0,0,1,32.475-19.85,3.179,3.179,0,0,0,2.66-.833,29.564,29.564,0,0,1,36.758-1.04,3.586,3.586,0,0,0,2.823.737,26.2,26.2,0,0,1,25.453,11.191,4.494,4.494,0,0,0,2.243,1.751A26.768,26.768,0,0,1,393.3,551.038a10.414,10.414,0,0,0,1.5,6.424,29.328,29.328,0,0,1-3,34.24,4.73,4.73,0,0,0-.953,2.173,26.418,26.418,0,0,1-18.784,21.957,3.271,3.271,0,0,0-1.786,1.343,19.678,19.678,0,0,1-18.912,8.525c-.326-.026-.659-.061-.985-.1s-.545-.1-.912-.169M384.617,548.7c-.018-.3-.018-.7-.055-1.1a18.139,18.139,0,0,0-13.682-15.725,6.783,6.783,0,0,1-4.589-3.385,17.358,17.358,0,0,0-15.183-9.021,10.78,10.78,0,0,0-10.224,4.647,20.7,20.7,0,0,0-1.448,2.873,4.365,4.365,0,0,1-8.216-2.952c.044-.122.093-.239.146-.355A20.934,20.934,0,0,1,336,516.416c.213-.219.385-.472.589-.723a20.629,20.629,0,0,0-24.78,3.607,6,6,0,0,1-6.022,1.806,22.545,22.545,0,0,0-24.524,12.362,11.979,11.979,0,0,0,1.337,13.056,19.85,19.85,0,0,0,3.045,2.8c1.195-1.5,2.22-2.739,3.193-4.015a22.09,22.09,0,0,1,13.746-9.286,30.894,30.894,0,0,1,12.427.737,3.242,3.242,0,0,0,1.975-.207,21.573,21.573,0,0,1,16.561-.5,4.178,4.178,0,0,1,2.669,5.2,4.31,4.31,0,0,1-5.125,3.045c-1.02-.187-2.01-.516-3.027-.691a9.572,9.572,0,0,0-11.864,6.518l-.012.038a4.256,4.256,0,0,1-5.361,2.736c-.052-.017-.1-.035-.157-.055a4.408,4.408,0,0,1-2.648-5.644l.012-.035c.274-.854.647-1.681,1.023-2.645a11.976,11.976,0,0,0-10.343,2.808c-1.116,1.031-2.043,2.27-3.065,3.406a59.791,59.791,0,0,1-4.845,5.28,7.5,7.5,0,0,1-8.484,1.084,16.551,16.551,0,0,1-7.9-7.089c-1.075-1.917-1.833-4.009-2.736-6.034-.154.134-.379.3-.592.5a21.759,21.759,0,0,0,7.453,36.3,7.287,7.287,0,0,1,4.012,3.272,16.829,16.829,0,0,0,18.446,7.252,8.333,8.333,0,0,0,4.627-3.322l-1.087-.851a25.7,25.7,0,0,1-6.057-6.675,4.265,4.265,0,0,1-.052-4.7,4.109,4.109,0,0,1,3.974-2.057,5.241,5.241,0,0,1,3.9,2.733,14.928,14.928,0,0,0,15.949,6.827,4.273,4.273,0,0,1,5.245,3c.02.082.041.163.058.245a4.36,4.36,0,0,1-3.31,5.2l-.224.044a21.123,21.123,0,0,1-9.347.149,1.33,1.33,0,0,0-1.617.67,16.764,16.764,0,0,1-6.4,5.74c-.539.276-1.093.548-1.737.88.475.463.862.906,1.285,1.276a25.223,25.223,0,0,0,12.348,5.7,23.857,23.857,0,0,0,21.706-5.113,4.282,4.282,0,0,1,5.786-.111,38.078,38.078,0,0,0,13.289,6.483,17.718,17.718,0,0,0,16.217-3.03,17.013,17.013,0,0,0,5.571-7.654,4.182,4.182,0,0,0-.574-.076,22.056,22.056,0,0,1-15-6.183,3.96,3.96,0,0,1-1.058-4.551,4.064,4.064,0,0,1,3.575-2.849,4.344,4.344,0,0,1,3.441,1.1,15.525,15.525,0,0,0,6.133,3.4,7.091,7.091,0,0,0,8.429-2.561,20.988,20.988,0,0,0,.513-24.4,5.731,5.731,0,0,0-1.739-1.876,18,18,0,0,0-17.062-1.6,4.092,4.092,0,0,1-5.242-1.571c-.335-.472-.629-.976-.985-1.43a11.253,11.253,0,0,0-7.881-4.44,4.265,4.265,0,0,1-4.1-4.431,4.162,4.162,0,0,1,.16-1,4.474,4.474,0,0,1,5.2-3.156,19.206,19.206,0,0,1,11.957,5.981,1.494,1.494,0,0,0,1.71.533,18.743,18.743,0,0,1,7.989-.545c2.68.42,5.323,1.066,8.047,1.629m-55.37,66.861,5.62,18.967c4.429-1.148,4.944-1.76,5.5-5.425a55.338,55.338,0,0,0-.624-16.782l-10.495,3.225m19.355-2.794a22.233,22.233,0,0,0,.318,2.479,1.632,1.632,0,0,0,.731.979,10.544,10.544,0,0,0,8.624.009c-1.833-.574-3.412-1-4.944-1.559s-3.042-1.221-4.726-1.906" transform="translate(-255.546 -504.383)"/><path class="b" d="M308.757,539.505c-1.85-.889-3.729-1.728-5.539-2.695a1.272,1.272,0,0,0-1.538,0,16.939,16.939,0,0,1-19.471-1.6,4.276,4.276,0,0,1-.586-5.923,4.323,4.323,0,0,1,5.661-1.081,22.078,22.078,0,0,0,3.992,1.938,6.432,6.432,0,0,0,7.269-2.1,4.459,4.459,0,0,1,7.351-.274,19.911,19.911,0,0,0,3.5,2.511,3.755,3.755,0,0,0,4.4-.516,12.6,12.6,0,0,0,1.806-1.7,4.272,4.272,0,0,1,5.987-.717,4.362,4.362,0,0,1,.833,6.107l-.067.084A14.933,14.933,0,0,1,308.78,539.5" transform="translate(-207.424 -463.08)"/></g><g class="c" transform="matrix(0.985, 0.174, -0.174, 0.985, 1608.669, 64.66)"><path class="b" d="M201.067,547.257A11.793,11.793,0,1,0,212.7,559.2V559.2a11.785,11.785,0,0,0-11.632-11.941Z" transform="translate(-156.154 -431.934)"/><path class="b" d="M269.984,539.917a44.69,44.69,0,0,0-33.323-34.569c-18.658-5.185-40.309,1.106-51.244,17.512a47.323,47.323,0,0,0-7.709,18.808c-.974,6.782-2.479,17.591,1.777,23.51a12.676,12.676,0,0,0,10.492,5.159,11.39,11.39,0,0,0,10.975-7.49c2.062-5.861-.631-12.107,1.1-17.942a23.163,23.163,0,0,1,10.236-12.926,24.893,24.893,0,0,1,21.62-1.352,27.6,27.6,0,0,1,9.573,8.264,18.969,18.969,0,0,1,3.316,11.062,21.318,21.318,0,0,1-3.234,10.978l.09,0a23.053,23.053,0,0,1-3.348,4.282l-21.871,21.818c-13.744,13.974-2.941,22.071-2.941,22.071,9.922,7.8,20.078-2.1,20.078-2.1l16.72-16.292a74.631,74.631,0,0,0,11.764-15.975A51.969,51.969,0,0,0,269.984,539.917Z" transform="translate(-176.633 -503.574)"/></g></g></svg>