<svg xmlns="http://www.w3.org/2000/svg" width="72" height="72" viewBox="0 0 72 72"><defs><style>.a{fill:none;}.b{fill:#1e2479;}.c{fill:#fff;}</style></defs><g transform="translate(-595 -322)"><rect class="a" width="72" height="72" transform="translate(595 322)"/><g transform="translate(602.274 339.398)"><rect class="a" width="32.629" height="36.823" transform="translate(13.521)"/><path class="b" d="M21.5,45.217H0l3.175-8.26a5.691,5.691,0,0,1,7.63-2.578L42.1,47.331a5.711,5.711,0,0,1,2.573,7.644L35.6,85.785a5.693,5.693,0,0,1-6.593,2.975,8.585,8.585,0,0,0,1.2-4.4v-30.4A8.747,8.747,0,0,0,21.5,45.217Z" transform="translate(17.521 -45.184)"/><path class="b" d="M150.219,150.316h32.848a5.978,5.978,0,0,1,5.788,6.114v33.89a5.978,5.978,0,0,1-5.788,6.114H150.219a5.978,5.978,0,0,1-5.788-6.114V156.43A5.961,5.961,0,0,1,150.219,150.316Zm-2.672,6.885v33.2a2.168,2.168,0,0,0,2.1,2.217h33.487a2.167,2.167,0,0,0,2.1-2.217V156.361a2.168,2.168,0,0,0-2.1-2.217H149.645a2.167,2.167,0,0,0-2.1,2.217Z" transform="translate(-142.704 -148.259)"/><g transform="translate(-602.273 -333.698)"><path class="c" d="M506.118,129.474l-12.955-11.981a1.909,1.909,0,0,0-3.206,1.4v5.887H478.64a1.911,1.911,0,0,0-1.909,1.909v8.37a1.912,1.912,0,0,0,1.909,1.909h11.317v5.887a1.885,1.885,0,0,0,1.144,1.749,1.928,1.928,0,0,0,.773.164,1.889,1.889,0,0,0,1.288-.512l12.955-11.981a1.909,1.909,0,0,0,0-2.8Z" transform="translate(120.269 227.318)"/><path class="b" d="M506.118,129.474l-12.955-11.981a1.909,1.909,0,0,0-3.206,1.4v5.887H478.64a1.911,1.911,0,0,0-1.909,1.909v8.37a1.912,1.912,0,0,0,1.909,1.909h11.317v5.887a1.885,1.885,0,0,0,1.144,1.749,1.928,1.928,0,0,0,.773.164,1.889,1.889,0,0,0,1.288-.512l12.955-11.981a1.909,1.909,0,0,0,0-2.8Zm-.943,1.784L492.22,143.238a.521.521,0,0,1-.874-.382V136.2h0v-.617h-12.7a.521.521,0,0,1-.521-.521v-8.37a.521.521,0,0,1,.521-.521h12.7v-.719h0v-6.557a.5.5,0,0,1,.312-.477.555.555,0,0,1,.218-.046.5.5,0,0,1,.344.141l12.955,11.981a.521.521,0,0,1,0,.764Z" transform="translate(120.269 227.318)"/></g></g></g></svg>