<svg xmlns="http://www.w3.org/2000/svg" width="72" height="72.682" viewBox="0 0 72 72.682"><defs><style>.a{fill:none;}.b{fill:#1e2479;}</style></defs><g transform="translate(-589 -321)"><rect class="a" width="72" height="71.682" transform="translate(589 322)"/><g transform="translate(587.125 315.375)"><path class="b" d="M19.362,33.522H38.829a16.41,16.41,0,1,0,0-22.974H19.362a11.487,11.487,0,0,0,0,22.974ZM15.9,18.569a4.878,4.878,0,0,1,3.467-1.456H34.89a16.346,16.346,0,0,0,0,9.846H19.362a4.9,4.9,0,0,1-3.467-8.39Z" transform="translate(0 0)"/><path class="b" d="M55.465,24.048H36a16.41,16.41,0,1,0,0,22.974H55.465a11.487,11.487,0,0,0,0-22.974ZM58.931,39a4.878,4.878,0,0,1-3.467,1.456H39.937a16.346,16.346,0,0,0,0-9.846H55.465A4.9,4.9,0,0,1,58.931,39Z" transform="translate(0 25.885)"/></g></g></svg>