<svg xmlns="http://www.w3.org/2000/svg" width="25" height="20.313" viewBox="0 0 25 20.313"><defs><style>.a{fill:#0E0C5A;}</style></defs><path class="a" d="M2.344,3.375A2.344,2.344,0,1,0,4.688,5.719,2.344,2.344,0,0,0,2.344,3.375Zm0,7.813a2.344,2.344,0,1,0,2.344,2.344,2.344,2.344,0,0,0-2.344-2.344Zm0,7.812a2.344,2.344,0,1,0,2.344,2.344A2.344,2.344,0,0,0,2.344,19Zm21.875.781H8.594a.781.781,0,0,0-.781.781v1.563a.781.781,0,0,0,.781.781H24.219A.781.781,0,0,0,25,22.125V20.563A.781.781,0,0,0,24.219,19.781Zm0-15.625H8.594a.781.781,0,0,0-.781.781V6.5a.781.781,0,0,0,.781.781H24.219A.781.781,0,0,0,25,6.5V4.938A.781.781,0,0,0,24.219,4.156Zm0,7.813H8.594a.781.781,0,0,0-.781.781v1.563a.781.781,0,0,0,.781.781H24.219A.781.781,0,0,0,25,14.313V12.75A.781.781,0,0,0,24.219,11.969Z" transform="translate(0 -3.375)"/></svg>