<svg xmlns="http://www.w3.org/2000/svg" width="19.82" height="20" viewBox="0 0 19.82 20"><defs><style>.a,.c{fill:none;}.b{fill:#fff;}.c{stroke:#fff;stroke-miterlimit:10;stroke-width:3px;}</style></defs><g transform="translate(0 -1)"><rect class="a" width="19.82" height="20" transform="translate(0 1)"/><g transform="translate(-1543.821 -182.46)"><g transform="translate(1547.169 183.461)"><path class="b" d="M1557.738,203.069a9.7,9.7,0,0,1-5.76-1.878.64.64,0,0,1,.756-1.034,8.429,8.429,0,0,0,5,1.632,8.523,8.523,0,1,0-5.054-15.386.641.641,0,0,1-.761-1.031,9.8,9.8,0,1,1,5.815,17.7Z" transform="translate(-1551.663 -183.461)"/></g><g transform="translate(1545.655 188.128)"><path class="c" d="M1548.117,194.391" transform="translate(-1548.117 -194.391)"/></g><g transform="translate(1544.418 192.625)"><path class="b" d="M1557.111,206.2h-11.252a.641.641,0,0,1,0-1.281h11.252a.641.641,0,0,1,0,1.281Z" transform="translate(-1545.219 -204.921)"/></g><g transform="translate(1543.821 188.918)"><path class="b" d="M1548.2,204.757a.638.638,0,0,1-.453-.188l-3.923-3.923,4.217-4.217a.64.64,0,0,1,.906.906l-3.311,3.311,3.017,3.017a.641.641,0,0,1-.453,1.094Z" transform="translate(-1543.821 -196.242)"/></g></g></g></svg>