<svg xmlns="http://www.w3.org/2000/svg" width="72" height="72" viewBox="0 0 72 72"><defs><style>.a{fill:none;}.b{fill:#0E0C5A;}</style></defs><g transform="translate(0 0)"><rect class="a" width="72" height="71.565" transform="translate(0 0)"/><g transform="translate(2.25 0)"><g transform="translate(0 1.696)"><path class="b" d="M1500.84,205.036l-.61-2.165c-.673-2.4-1.345-4.81-2.088-7.2-.745-2.37-1.9-4.942-4.885-6.029-2.131-.778-3.013-2.153-2.947-4.6.06-2.169-.648-3.685-2.108-4.53.342-.313.666-.595,1-.863.515-.411,1.051-.8,1.584-1.185a30.463,30.463,0,0,0,2.493-1.941c1.933-1.729,3.213-2.869,3.193-4.356-.016-1.469-1.287-2.551-3.211-4.193l-.621-.521c-.6-.5-1.152-.982-1.661-1.492-1.687-.771-2.408.758-1.442,2.019.5.472,1.01.921,1.516,1.344l.6.508c.875.745,2.34,1.992,2.356,2.364,0,.387-1.548,1.764-2.378,2.507-.723.644-1.512,1.214-2.3,1.784-.565.409-1.13.818-1.672,1.25-.558.445-1.084.928-1.706,1.5l-2.911,2.632,2.615.36c1.7.239,2.239.906,2.187,2.748-.094,3.479,1.44,5.823,4.561,6.961,1.858.678,2.7,2.272,3.379,4.459.738,2.359,1.4,4.741,2.072,7.122l.383,1.476a13.29,13.29,0,0,0-1.764.089.09.09,0,0,0-.047.025,9.55,9.55,0,0,1-.045-1.966c.043-1.843-.443-3.1-1.444-3.75s-2.313-.572-3.955.195a28.667,28.667,0,0,0-5.528,3.348,5.771,5.771,0,0,1-6.444.89c-4.14-1.715-9.094-3.314-14.474-2.167a30.891,30.891,0,0,0-5.123,1.726c-.693.277-1.386.557-2.081.812-3.5,1.29-7.133.57-10.314-.172a2.257,2.257,0,0,1-.484-1.127,14.391,14.391,0,0,1,1.312-4.242c1.024-2.191,2.075-5.521-.641-9.1-1.429-1.887-2.741-3.945-4.005-5.935-.682-1.067-1.361-2.131-2.063-3.187a5.009,5.009,0,0,0-1.1-1.1l-.223-.179c-2.992-2.482-3.789-5.479-2.437-9.157.452-1.225.916-2.446,1.382-3.665a8.681,8.681,0,0,0-.061-6.764c-1.021-2.29-.533-4.211,1.631-6.424.488-.5,1-.964,1.516-1.433.452-.407.9-.818,1.334-1.243a18.79,18.79,0,0,0,5.085-8.238,6.923,6.923,0,0,1,1.156-2.379c.151-.192.4-.505,1.471.141a4.282,4.282,0,0,1-.436.841l-.214.371a18.32,18.32,0,0,0-1.8,3.7c-1.957,6.257.052,10.95,6.138,14.349a6.271,6.271,0,0,1,2.153,2.064,4.948,4.948,0,0,0,3.233,2.594c1.633-.089,1.7-1.621.369-2.4-.522-.118-.945-.577-1.512-1.483a8.711,8.711,0,0,0-3.038-2.9c-5.053-2.822-6.592-6.366-4.99-11.487a16.257,16.257,0,0,1,1.575-3.2l.3-.523c.443-.756,1.476-2.525-.466-3.886-1.793-1.255-3.562-1.138-4.714.3a9.443,9.443,0,0,0-1.6,3.227,16.39,16.39,0,0,1-4.453,7.18c-.41.4-.835.789-1.262,1.178-.549.5-1.1,1-1.618,1.532-2.862,2.923-3.555,5.908-2.122,9.121a6.224,6.224,0,0,1,.016,4.9q-.713,1.845-1.4,3.7a9.929,9.929,0,0,0,3.17,11.876l.261.21a3.25,3.25,0,0,1,.589.546c.691,1.035,1.361,2.089,2.031,3.14,1.294,2.03,2.633,4.128,4.122,6.1,1.519,2.006,1.629,3.918.376,6.6a16.8,16.8,0,0,0-1.523,4.971c-.151,1.19.754,3.37,2.106,3.705,3.777.935,7.794,1.726,11.986.2.722-.266,1.438-.555,2.155-.843a29.576,29.576,0,0,1,4.716-1.6c4.714-1,9.22.463,13.005,2.033a8.28,8.28,0,0,0,8.928-1.23,26.278,26.278,0,0,1,5.053-3.055c.963-.45,1.442-.429,1.557-.353s.348.523.322,1.644c-.045,1.861-.072,2.885.689,3.645s1.809.742,3.708.709c.309,0,.617-.02.949-.036l1.591-.3.027-1.143A2.415,2.415,0,0,0,1500.84,205.036Z" transform="translate(-1434.287 -137.16)"/></g><g transform="translate(27.419)"><path class="b" d="M1461.66,180.992a2.281,2.281,0,0,1-1.989-1.152l-11.288-20.666a15.392,15.392,0,0,1,.2-15.206,14.99,14.99,0,0,1,12.737-7.562H1462a14.99,14.99,0,0,1,12.737,7.562,15.387,15.387,0,0,1,.2,15.206l-11.279,20.648A2.287,2.287,0,0,1,1461.66,180.992Zm-.3-42.642a13.048,13.048,0,0,0-11.09,6.592,13.45,13.45,0,0,0-.178,13.3l11.572,21.184,11.576-21.184a13.466,13.466,0,0,0-.178-13.3,13.066,13.066,0,0,0-11.1-6.595l-.3,0Z" transform="translate(-1446.473 -136.406)"/><path class="b" d="M1456.525,151.773a5.947,5.947,0,1,1,5.949-5.945A5.951,5.951,0,0,1,1456.525,151.773Zm0-9.95a4,4,0,1,0,4.005,4A4.008,4.008,0,0,0,1456.525,141.823Z" transform="translate(-1441.338 -132.065)"/></g></g></g></svg>