<svg xmlns="http://www.w3.org/2000/svg" width="12" height="12.337" viewBox="0 0 12 12.337"><defs><style>.a{fill:#d9d9d9;}</style></defs><path class="a" d="M13.99,9.773a4.253,4.253,0,0,0,0-1.209l1.3-1.018a.311.311,0,0,0,.074-.395L14.132,5.017a.31.31,0,0,0-.376-.136L12.22,5.5a4.507,4.507,0,0,0-1.042-.6l-.234-1.635a.3.3,0,0,0-.3-.259H8.174a.3.3,0,0,0-.3.259L7.637,4.894a4.739,4.739,0,0,0-1.042.6L5.059,4.881a.3.3,0,0,0-.376.136L3.449,7.151a.3.3,0,0,0,.074.395l1.3,1.018a4.253,4.253,0,0,0,0,1.209l-1.3,1.018a.311.311,0,0,0-.074.395L4.682,13.32a.31.31,0,0,0,.376.136l1.536-.617a4.507,4.507,0,0,0,1.042.6l.234,1.635a.3.3,0,0,0,.3.259h2.467a.3.3,0,0,0,.3-.259l.234-1.635a4.739,4.739,0,0,0,1.042-.6l1.536.617a.3.3,0,0,0,.376-.136l1.234-2.134a.311.311,0,0,0-.074-.395l-1.3-1.018ZM9.407,11.327a2.159,2.159,0,1,1,2.159-2.159A2.161,2.161,0,0,1,9.407,11.327Z" transform="translate(-3.406 -3)"/></svg>