<svg xmlns="http://www.w3.org/2000/svg" width="184.5" height="292.688" viewBox="0 0 184.5 292.688"><defs><style>.a{fill:#0E0C5A;}.b,.c,.e{fill:none;}.b{stroke:#0E0C5A;}.c{stroke:#ff4545;}.d{stroke:none;}</style></defs><g transform="translate(-219.5 -587.5)"><g transform="translate(220 587.5)"><g transform="translate(16.98 27.593)"><path class="a" d="M481.078,107.382a7.784,7.784,0,0,1-7.889-8.132V73.884a7.892,7.892,0,1,1,15.778,0V99.25a7.749,7.749,0,0,1-7.889,8.132m1.517-33.922a1.522,1.522,0,1,0-3.034,0V99.674a1.522,1.522,0,1,0,3.034,0Z" transform="translate(-457.829 -65.753)"/><path class="a" d="M506.959,107.054h-8.253V66.639h8.253c3.823,0,7.343,2.245,7.343,7.889v24.88c0,5.644-3.52,7.646-7.343,7.646m1.092-32.526c0-1.4-.546-2.063-1.638-2.063h-1.457v28.825h1.457c1.092,0,1.638-.668,1.638-2.124Z" transform="translate(-466.358 -66.032)"/><path class="a" d="M531.316,107.382a7.784,7.784,0,0,1-7.889-8.132V73.884a7.892,7.892,0,1,1,15.778,0V99.25a7.749,7.749,0,0,1-7.889,8.132m1.517-33.922a1.521,1.521,0,1,0-3.034,0V99.674a1.521,1.521,0,1,0,3.034,0Z" transform="translate(-474.401 -65.753)"/><path class="a" d="M555.533,107.382c-4.854,0-7.828-3.035-7.828-8.435V94.7h5.461v4.733c0,1.457.668,2.428,2.064,2.428,1.334,0,2-.911,2-2.428,0-3.641-1.457-6.493-3.823-10.558-2.367-3.763-5.583-9.345-5.583-14.018,0-5.036,2.609-9.1,8.071-9.1,4.247,0,7.1,3.095,7.1,8.435v4.43h-5.4V73.581c0-1.335-.729-2.063-1.7-2.063a1.837,1.837,0,0,0-1.881,2.063c0,4.672,1.4,6.31,3.944,10.8,2.671,4.551,5.341,9.345,5.341,14.079,0,6.311-3.823,8.92-7.767,8.92" transform="translate(-482.299 -65.753)"/><path class="a" d="M459.4,172.794c-4.491,0-7.221-2.974-7.221-7.768v-8.92h4.126v9.1c0,2.185.91,3.4,2.973,3.4s2.913-1.214,2.913-3.4V131.772H466.5v33.072c0,4.734-2.488,7.95-7.1,7.95" transform="translate(-451.208 -81.11)"/><path class="a" d="M484.988,172.794c-4.43,0-7.646-3.156-7.646-8.132v-32.89h4.369V164.9c0,2.488,1.092,3.763,3.337,3.763s3.338-1.275,3.338-3.763V131.772h4.248v32.89c0,4.976-3.277,8.132-7.646,8.132" transform="translate(-459.138 -81.11)"/><path class="a" d="M517.251,171.908l-1.153-2.427c-.91,2-2.913,3.034-5.4,3.034-3.884,0-7.039-2.974-7.039-8.313v-25c0-4.733,3.034-8.313,7.768-8.313s7.342,3.4,7.342,8.313v5.462h-4.005v-6.19a3.164,3.164,0,0,0-3.337-3.4,3.26,3.26,0,0,0-3.4,3.459v26.337c0,2.063,1.032,3.7,3.4,3.7,2.305,0,3.459-1.638,3.459-3.7v-9.224h-3.216v-3.823h7.464v20.086Z" transform="translate(-467.969 -80.823)"/><path class="a" d="M539.746,172.187l-1.092-8.739h-5.583l-1.275,8.739H527.67l6.129-40.415h4.552l5.886,40.415Zm-3.763-30.827-2.367,18.023h4.49Z" transform="translate(-475.787 -81.106)"/><path class="a" d="M571.579,172.187V141.6l-.971,7.039-3.7,23.545H562.84l-3.823-23.545-.971-7.039v30.584h-3.884V131.772h6.251l3.641,25,.971,7.039.971-7.039,3.581-25h6.068v40.415Z" transform="translate(-484.446 -81.106)"/><path class="a" d="M597.638,172.514c-4.734,0-7.768-3.519-7.768-8.435V139.321c0-4.855,3.034-8.435,7.768-8.435s7.767,3.58,7.767,8.435V164.08c0,4.915-3.034,8.435-7.767,8.435m3.459-33.8a3.329,3.329,0,0,0-3.459-3.641c-2.246,0-3.4,1.578-3.4,3.641v25.972c0,2.124,1.154,3.641,3.4,3.641a3.3,3.3,0,0,0,3.459-3.641Z" transform="translate(-496.015 -80.823)"/><path class="a" d="M623.182,172.514c-4.733,0-7.706-3.277-7.706-7.95v-4.612h4.248v4.43c0,2.67,1.274,4.43,3.4,4.43,2.427,0,3.519-1.578,3.519-4.127,0-3.884-1.457-7.16-4.612-11.226-2.852-3.641-6.189-9.041-6.189-13.775,0-5.037,2.488-8.8,7.646-8.8,4.369,0,7.221,3.277,7.221,8.01v4.794h-4.126v-4.43c0-2.791-1.031-4.43-3.216-4.43-2.124,0-3.277,1.335-3.277,3.7,0,4.308,1.517,7.04,5.1,11.773,3.52,4.551,5.7,8.8,5.7,13.411,0,6.432-4,8.8-7.707,8.8" transform="translate(-504.344 -80.823)"/><path class="a" d="M640.286,192.6V191.33c1.335,0,2-1.092,2-3.337H640.65v-6.068h3.64v5.461c0,3.095-1.092,5.219-4,5.219" transform="translate(-512.534 -97.274)"/><path class="a" d="M461.562,203.034V237.32h-6.25V203.034h-4.551v-6.129h15.353v6.129Z" transform="translate(-450.761 -96.169)"/><path class="a" d="M481.078,237.647a7.784,7.784,0,0,1-7.889-8.132V204.15a7.892,7.892,0,1,1,15.778,0v25.365a7.749,7.749,0,0,1-7.889,8.132m1.517-33.922a1.522,1.522,0,1,0-3.034,0V229.94a1.522,1.522,0,1,0,3.034,0Z" transform="translate(-457.829 -95.893)"/><path class="a" d="M506.959,237.32h-8.253V196.9h8.253c3.823,0,7.343,2.245,7.343,7.889v24.88c0,5.644-3.52,7.646-7.343,7.646m1.092-32.526c0-1.4-.546-2.063-1.638-2.063h-1.457v28.825h1.457c1.092,0,1.638-.668,1.638-2.124Z" transform="translate(-466.358 -96.169)"/><path class="a" d="M531.316,237.647a7.784,7.784,0,0,1-7.889-8.132V204.15a7.892,7.892,0,1,1,15.778,0v25.365a7.749,7.749,0,0,1-7.889,8.132m1.517-33.922a1.522,1.522,0,1,0-3.034,0V229.94a1.521,1.521,0,1,0,3.034,0Z" transform="translate(-474.401 -95.893)"/><path class="a" d="M555.533,237.647c-4.854,0-7.828-3.035-7.828-8.435v-4.248h5.461V229.7c0,1.457.668,2.428,2.064,2.428,1.334,0,2-.911,2-2.428,0-3.641-1.457-6.493-3.823-10.558-2.367-3.763-5.583-9.345-5.583-14.018,0-5.036,2.609-9.1,8.071-9.1,4.247,0,7.1,3.095,7.1,8.435v4.43h-5.4v-5.036c0-1.335-.729-2.064-1.7-2.064a1.837,1.837,0,0,0-1.881,2.064c0,4.672,1.4,6.31,3.944,10.8,2.671,4.552,5.341,9.345,5.341,14.079,0,6.311-3.823,8.92-7.767,8.92" transform="translate(-482.299 -95.893)"/><path class="a" d="M467.643,302.118l-.789-2.73a6.354,6.354,0,0,1-5.7,3.519c-5.28,0-8.617-3.823-8.617-9.1V270.016c0-4.794,4.005-9.042,9.77-9.042s9.527,4.247,9.527,9.042v6.676h-7.342v-6.8a1.809,1.809,0,0,0-2.064-1.881,1.789,1.789,0,0,0-2,1.881v24.213a2.1,2.1,0,0,0,4.187,0v-6.614h-2.063v-5.462h9.588v20.086Z" transform="translate(-451.319 -110.911)"/><path class="a" d="M494.194,302.454l-.546-6.493h-4.612l-.668,6.493H481.33l5.886-40.415H496.2l5.826,40.415Zm-2.548-28.521-1.76,15.716h3.095Z" transform="translate(-460.395 -111.246)"/><path class="a" d="M461.562,72.768v34.286h-6.25V72.768h-4.551V66.639h15.353v6.129Z" transform="translate(-450.761 -66.032)"/><path class="a" d="M526.265,302.453l-5.158-16.567-1.82-5.644v22.21h-6.858V262.038h7.161l4.673,16.567,1.638,5.7V262.038h6.8v40.415Z" transform="translate(-470.845 -111.246)"/><path class="a" d="M555.6,302.454l-.546-6.493H550.44l-.668,6.493h-7.039l5.886-40.415H557.6l5.825,40.415Zm-2.548-28.521-1.76,15.716h3.1Z" transform="translate(-480.717 -111.246)"/><path class="a" d="M593.522,302.453V273.447l-1.274,9.588-2.792,19.418H584.48l-2.548-19.418-1.153-9.588v29.006h-6.857V262.038h10.255l2.488,15.838.91,8.192.911-8.192,2.427-15.838h10.073v40.415Z" transform="translate(-490.941 -111.246)"/><path class="a" d="M626.194,302.907c-5.522,0-9.831-3.823-9.831-9.345v-23.3c0-5.522,4.309-9.285,9.831-9.285,5.461,0,9.77,3.763,9.77,9.285v23.3c0,5.523-4.309,9.345-9.77,9.345m1.82-33.133a1.7,1.7,0,0,0-1.82-1.759,1.754,1.754,0,0,0-1.882,1.759v24.273a1.754,1.754,0,0,0,1.882,1.76,1.7,1.7,0,0,0,1.82-1.76Z" transform="translate(-504.995 -110.911)"/><path class="a" d="M656.254,302.907c-6.007,0-9.588-3.519-9.588-9.527v-3.52H653.4v3.763c0,1.638.85,2.73,2.488,2.73,1.578,0,2.367-.97,2.367-2.67,0-3.277-1.941-5.765-4.672-9.163-3.034-3.4-6.736-8.253-6.736-13.29,0-5.522,3.216-10.256,9.77-10.256,5.218,0,8.738,3.763,8.738,9.467v3.519h-6.735v-4.005a2.037,2.037,0,0,0-2-2.306,2.2,2.2,0,0,0-2.246,2.367c0,3.884,1.942,5.582,4.734,9.284,3.276,3.944,6.675,8.192,6.675,13.411,0,6.372-4.127,10.195-9.528,10.195" transform="translate(-514.545 -110.911)"/></g><g class="b"><rect class="d" width="184" height="246.235"/><rect class="e" x="0.5" y="0.5" width="183" height="245.235"/></g></g><path class="c" d="M-13673.334,13251v20.365h35.069" transform="translate(13893.334 -12392.907)"/><path class="a" d="M-34.487,3.082V.225h-2.3V3.144A2.147,2.147,0,0,1-39.113,5.5a2.145,2.145,0,0,1-2.36-2.267V-8.934a2.16,2.16,0,0,1,2.36-2.267,2.161,2.161,0,0,1,2.329,2.36v2.887h2.3V-8.779c0-2.7-1.552-4.781-4.719-4.781A4.64,4.64,0,0,0-44.05-8.592V2.9a4.624,4.624,0,0,0,4.844,4.968C-36.04,7.863-34.487,5.783-34.487,3.082Zm11.8-.31V-8.468c0-2.919-1.708-5.092-4.875-5.092s-4.875,2.173-4.875,5.092V2.771c0,2.95,1.708,5.092,4.875,5.092S-22.689,5.721-22.689,2.771Zm-2.577.279a2.2,2.2,0,0,1-2.3,2.453,2.18,2.18,0,0,1-2.3-2.453v-11.8a2.194,2.194,0,0,1,2.3-2.453,2.21,2.21,0,0,1,2.3,2.453Zm15.12,4.44V-13.187H-12.6V.753l-1.273-3.508-4.067-10.432h-2.2V7.491h2.453V-6.264l1.366,3.477,4.316,10.277ZM1.125-10.8v-2.391H-8.407V-10.8H-4.9V7.491h2.577V-10.8ZM12.892,7.677V5.845c-.528,0-.714-.248-.714-.807V.629A3.014,3.014,0,0,0,9.881-2.6c1.646-.4,2.2-1.521,2.2-3.291V-9.027c0-2.856-1.49-4.16-4.129-4.16H2.895V7.491H5.5V-1.575H7.832c1.211,0,1.77.807,1.77,2.049V5.193c0,1.925.714,2.484,2.608,2.484ZM9.508-5.674c0,1.3-.683,2.018-1.832,2.018H5.5v-7.2H7.925c1.118,0,1.583.652,1.583,1.739ZM24.287,2.771V-8.468c0-2.919-1.708-5.092-4.875-5.092s-4.875,2.173-4.875,5.092V2.771c0,2.95,1.708,5.092,4.875,5.092S24.287,5.721,24.287,2.771Zm-2.577.279a2.2,2.2,0,0,1-2.3,2.453,2.18,2.18,0,0,1-2.3-2.453v-11.8a2.194,2.194,0,0,1,2.3-2.453,2.21,2.21,0,0,1,2.3,2.453Zm13.1,4.44V5.1H29.441V-13.187H26.864V7.491ZM50.15-5.27V-8.934c0-2.856-1.521-4.254-4.16-4.254H40.96V7.491h2.577V-1.048H45.99C48.629-1.048,50.15-2.445,50.15-5.27Zm-2.608.155c0,1.149-.435,1.832-1.521,1.832H43.537v-7.576h2.484c1.087,0,1.521.621,1.521,1.8ZM60.862,7.491l-3.85-20.678H54.28L50.4,7.491h2.453l.869-4.75h3.664l.838,4.75ZM56.981.443H54.124l1.459-8.849ZM72.474,7.491V-13.187H70.021V.753L68.748-2.755,64.681-13.187h-2.2V7.491h2.453V-6.264L66.3-2.786,70.611,7.491Zm10.867,0V5.131H77.814V-2.134h4.005V-4.4H77.814v-6.427h5.527v-2.36h-8.1V7.491Zm10.122,0V5.1H88.091V-13.187H85.514V7.491Z" transform="translate(309.389 872.325)"/></g></svg>