<svg xmlns="http://www.w3.org/2000/svg" width="32" height="32.001" viewBox="0 0 32 32.001"><defs><style>.a{fill:#0E0C5A;}.b{fill:none;}</style></defs><g transform="translate(0 0)"><g transform="translate(0 0)"><g transform="translate(3.438 0)"><path class="a" d="M1606.3,321.871a12.271,12.271,0,0,1-8.747-3.683,13.448,13.448,0,0,1-3.9-9.282l0-.3c-.049-7.221,5.507-13.148,12.386-13.231.091,0,.18,0,.271,0,6.853,0,12.5,5.758,12.646,12.966a13.508,13.508,0,0,1-3.515,9.448,12.313,12.313,0,0,1-8.866,4.079C1606.482,321.87,1606.39,321.871,1606.3,321.871Zm.009-25.308c-.083,0-.165,0-.249,0h-.005a11.71,11.71,0,0,0-11.268,12.017l0,.3a12.243,12.243,0,0,0,3.546,8.452,11.158,11.158,0,0,0,16.287-.363,12.292,12.292,0,0,0,3.2-8.6A11.8,11.8,0,0,0,1606.308,296.563Zm2.006,17.195a1.574,1.574,0,0,1-1.053-.408c-.323-.242-.674-.523-1.034-.811l-.188-.15c-.411.32-.826.642-1.241.961a1.553,1.553,0,0,1-1.952.077,1.728,1.728,0,0,1-.656-1.9c.131-.467.275-.936.422-1.411l.082-.271-.055-.041c-.4-.294-.791-.582-1.174-.881a1.538,1.538,0,0,1-.45-.454,1.776,1.776,0,0,1,.385-2.382,1.94,1.94,0,0,1,1.043-.351c.5-.028,1.026-.03,1.542-.007.124-.438.249-.842.373-1.245l.093-.3a1.689,1.689,0,0,1,1.232-1.266,1.664,1.664,0,0,1,1.981,1.34c.14.442.29.948.447,1.472h.125c.471,0,.944-.009,1.415.017a1.922,1.922,0,0,1,1.063.362,1.69,1.69,0,0,1,.419.472,1.759,1.759,0,0,1-.487,2.34c-.281.229-.608.468-.935.707l-.315.232.048.154c.143.461.286.923.413,1.388a2.186,2.186,0,0,1,.071.944,1.84,1.84,0,0,1-.348.783,1.619,1.619,0,0,1-1.136.626C1608.4,313.756,1608.356,313.757,1608.314,313.757Zm-2.271-2.854.871.692c.351.281.7.556,1.047.822a.524.524,0,0,0,.394.151.479.479,0,0,0,.335-.178.618.618,0,0,0,.123-.258.946.946,0,0,0-.041-.386c-.129-.474-.267-.921-.406-1.369l-.3-.981,1-.745c.311-.227.623-.455.923-.7a.556.556,0,0,0,.185-.748.494.494,0,0,0-.119-.137.829.829,0,0,0-.443-.138c-.467-.026-.915-.021-1.361-.016l-.969,0-.249-.831c-.156-.523-.307-1.027-.46-1.53a.516.516,0,0,0-1.025-.064l-.108.358c-.136.441-.272.881-.394,1.326a.887.887,0,0,1-.968.745,14.305,14.305,0,0,0-1.585,0,.831.831,0,0,0-.447.142.553.553,0,0,0-.1.729.508.508,0,0,0,.148.145c.422.325.8.606,1.194.894l.681.48.077.047-.357,1.12c-.144.465-.285.924-.414,1.386a.515.515,0,0,0,.2.572.483.483,0,0,0,.619-.019c.562-.433,1.089-.844,1.608-1.25Z" transform="translate(-1593.651 -295.376)"/></g><g transform="translate(0 20.05)"><path class="a" d="M1598.3,333.819a1.741,1.741,0,0,1-1.67-1.249l-.32-.866c-.349-.946-.71-1.925-1.021-2.909-.134-.419-.2-.455-.535-.463-.93-.021-1.866-.106-2.771-.189-.331-.03-.663-.061-1-.088a1.76,1.76,0,0,1-1.639-1.375,1.724,1.724,0,0,1,.848-1.888c.358-.237.874-.6,1.394-.964,2.42-1.693,2.671-1.868,3.094-1.342l-.187.15.186-.143a14.118,14.118,0,0,0,6.825,4.833l.615.2-2.2,5.176A1.725,1.725,0,0,1,1598.3,333.819Zm-4.257-10.225c-.444.279-1.215.818-1.771,1.207-.531.372-1.057.74-1.46,1a.564.564,0,0,0-.305.616.582.582,0,0,0,.548.449c.365.029.7.06,1.035.09.885.081,1.8.165,2.691.184a1.6,1.6,0,0,1,1.639,1.291c.3.958.659,1.923,1,2.856l.334.908a.581.581,0,0,0,.354.4.553.553,0,0,0,.709-.332l1.712-4.026A15.3,15.3,0,0,1,1594.042,323.594Z" transform="translate(-1589.307 -322.224)"/></g><g transform="translate(18.989 20.188)"><path class="a" d="M1618.417,333.858a1.761,1.761,0,0,1-1.688-1.262l-1.559-3.667a4.408,4.408,0,0,1-.324-.784.651.651,0,0,1,0-.415.523.523,0,0,1,.306-.3l.105-.051,2.223-1.01a13.433,13.433,0,0,0,4.371-3.584.873.873,0,0,1,1.27-.2c.684.459,1.373.91,2.061,1.36l1.345.883a1.759,1.759,0,0,1,.839,1.946,1.825,1.825,0,0,1-1.715,1.336l-.392.031c-1.222.093-2.443.188-3.668.269-.389,1.124-.778,2.194-1.164,3.261l-.318.878A1.723,1.723,0,0,1,1618.417,333.858Zm-2.251-5.585c.024.049.048.1.074.146l1.605,3.779a.615.615,0,0,0,.448.46.572.572,0,0,0,.68-.436l.339-.953c.4-1.1.8-2.2,1.183-3.307a1.014,1.014,0,0,1,1.033-.732c1.171-.081,2.406-.176,3.64-.271l.425-.032a.646.646,0,0,0,.627-.456.582.582,0,0,0-.3-.622l-1.386-.907q-.946-.618-1.889-1.244A14.687,14.687,0,0,1,1618,327.44Zm5.376.141h0Zm.092-.122-.012.033A.2.2,0,0,0,1621.633,328.292Z" transform="translate(-1614.811 -322.398)"/></g></g><rect class="b" width="32" height="32" transform="translate(0 0.001)"/></g></svg>