<svg xmlns="http://www.w3.org/2000/svg" width="32" height="32" viewBox="0 0 32 32"><defs><style>.a{fill:#0E0C5A;}.b{fill:none;}</style></defs><g transform="translate(0 0.791)"><path class="a" d="M1619.616,263.211a2.353,2.353,0,0,1-2.8.252l-.32-.195-.314.207a3.846,3.846,0,0,1-3.683.309.582.582,0,0,0-.553-.32.593.593,0,0,0-.566.62.883.883,0,0,0,.585.764,5.021,5.021,0,0,0,4.564-.192,3.537,3.537,0,0,0,3.873-.555.594.594,0,0,0-.788-.888Z" transform="translate(-1594.791 -248.848)"/><path class="a" d="M1620.954,259.879a5.451,5.451,0,0,0-1.446-3.943,5.506,5.506,0,0,0-.516-.486,10.786,10.786,0,0,0,.084-1.528,6.089,6.089,0,0,0-.214-1.86,5.049,5.049,0,0,0-.975-1.751,5.153,5.153,0,0,0-2.638-1.675c-.035-.05-.066-.1-.1-.157l-.093-.15a4.983,4.983,0,0,0-5.784-2.1c-.118-.121-.238-.24-.366-.351a6.139,6.139,0,0,0-8.436.371,8.064,8.064,0,0,0-4.712.6,5.718,5.718,0,0,0-3.183,4.029,4.41,4.41,0,0,0-.061.8,7.113,7.113,0,0,0-3.2,5.433,5.541,5.541,0,0,0,3.693,5.458,1.378,1.378,0,0,1,.288.106,1.363,1.363,0,0,1,.313.378,5.375,5.375,0,0,0,3.684,2.313,4.286,4.286,0,0,0,.53.033,4.231,4.231,0,0,0,.522-.033,4.162,4.162,0,0,0,2.24,2.431,8.338,8.338,0,0,0,2.77.658c.474,1.2,1.05,2.649,1.446,3.8.214.625.422,1.253.621,1.878.012.04.022.085.034.132a1.14,1.14,0,0,0,.779.967,2.234,2.234,0,0,0,.407.038,2.084,2.084,0,0,0,.673-.11,2.687,2.687,0,0,0,.967-.532,3.694,3.694,0,0,0,1.091-1.785,9.5,9.5,0,0,0,.292-1.774,5.66,5.66,0,0,0,2.757-.334l.094-.046a5.205,5.205,0,0,0,1.958-2.143c.19-.03.379-.056.568-.1a5.045,5.045,0,0,0,3.739-4.644c0-.011,0-.021,0-.032A4.792,4.792,0,0,0,1620.954,259.879ZM1608.533,270.9a8.236,8.236,0,0,1-.266,1.651,2.535,2.535,0,0,1-.74,1.22,1.553,1.553,0,0,1-.564.3.935.935,0,0,1-.364.056c-.011-.041-.023-.088-.03-.123-.018-.074-.034-.145-.056-.214q-.3-.958-.631-1.908c-.353-1.03-.84-2.274-1.278-3.38a8.168,8.168,0,0,0,3.8-.893A8.413,8.413,0,0,1,1608.533,270.9Zm3.433-1.212a4.633,4.633,0,0,1-2.211.235,7.973,7.973,0,0,0-.153-2.288,7.36,7.36,0,0,0,3.484,1A4.085,4.085,0,0,1,1611.966,269.69Zm6.116-6.822a2.7,2.7,0,0,1-3.213-.384.572.572,0,0,0-.786.831,3.771,3.771,0,0,0,3.488.957,3.893,3.893,0,0,1-2.812,3.07,6.236,6.236,0,0,1-4.94-.893,1.536,1.536,0,0,0-.719-.306l-.066-.01-.066.006a1.572,1.572,0,0,0-.839.331,7.11,7.11,0,0,1-4.1.867,7.255,7.255,0,0,1-2.99-.587,2.991,2.991,0,0,1-1.572-1.691,4.213,4.213,0,0,0,1.825-1.482.572.572,0,0,0-.941-.651,3.071,3.071,0,0,1-2.906,1.307,4.206,4.206,0,0,1-2.867-1.783,2.4,2.4,0,0,0-.623-.709l-.074-.049a2.251,2.251,0,0,0-.542-.214,4.382,4.382,0,0,1-2.884-4.3,5.966,5.966,0,0,1,2.244-4.233,4.438,4.438,0,0,0,2.018,2.568,1.438,1.438,0,0,0,.783.227,1.734,1.734,0,0,0,.362-.04,1.669,1.669,0,0,0,.911-.945,3.772,3.772,0,0,1,2.218-1.818,3.641,3.641,0,0,1,2.417.27,3.442,3.442,0,0,0-.561,1.43.571.571,0,0,0,.481.649.549.549,0,0,0,.085.006.573.573,0,0,0,.565-.488,2.277,2.277,0,0,1,1.322-1.762,4.2,4.2,0,0,1,2.5-.056.572.572,0,0,0,.315-1.1,5.386,5.386,0,0,0-3.227.089,3.45,3.45,0,0,0-.644.37,4.828,4.828,0,0,0-3.555-.513,4.984,4.984,0,0,0-2.964,2.447,2.859,2.859,0,0,0-.153.314.342.342,0,0,1-.265-.058,3.331,3.331,0,0,1-1.616-3.443,4.561,4.561,0,0,1,2.536-3.2,6.929,6.929,0,0,1,4.323-.458l.33.071.221-.256a5,5,0,0,1,7.049-.5l.007.007a4.953,4.953,0,0,0-1.863,2.1.572.572,0,0,0,1.035.487,3.848,3.848,0,0,1,6.756-.387l.078.125a1.672,1.672,0,0,0,.121.185,1.063,1.063,0,0,0,.313.353l.146.076a1.079,1.079,0,0,0,.175.048,4.025,4.025,0,0,1,2.087,1.317,3.877,3.877,0,0,1,.75,1.336,5.006,5.006,0,0,1,.169,1.524c.005.277,0,.555-.019.831a5.482,5.482,0,0,0-3.87-.387,2.563,2.563,0,0,0-1.076-1.21,6.39,6.39,0,0,0-1.843-.693.572.572,0,0,0-.232,1.121,5.22,5.22,0,0,1,1.509.567,1.409,1.409,0,0,1,.69,1.024l.1.723.679-.27a4.343,4.343,0,0,1,5.941,4.225A3.653,3.653,0,0,1,1618.083,262.868Z" transform="translate(-1589.311 -244.377)"/></g><rect class="b" width="32" height="32"/></svg>