<svg xmlns="http://www.w3.org/2000/svg" width="40" height="40" viewBox="0 0 40 40"><defs><style>.a{opacity:0.997;}.b{fill:#0E0C5A;}.c{fill:none;}</style></defs><g transform="translate(0 0.279)"><g class="a" transform="translate(5.893 0)"><g transform="translate(8.877 31.204)"><path class="b" d="M1610.866,227.734h-.054a4.041,4.041,0,0,1-2.766-6.935,4.1,4.1,0,0,1,2.873-1.146l.506.042a4.039,4.039,0,0,1-.559,8.039Zm-.076-6.607a2.631,2.631,0,1,0,.115,0Z" transform="translate(-1606.826 -219.653)"/></g><g transform="translate(0)"><path class="b" d="M1610.84,217.137a4.284,4.284,0,0,1-2.683-.957,3.772,3.772,0,0,1-1.36-2.588c-.108-1.425.6-2.915,2.094-4.427l5.967-5.907a5.506,5.506,0,0,0,.551-.643l.237-.39a5.031,5.031,0,0,0,.773-2.607,4.388,4.388,0,0,0-.78-2.586,6.807,6.807,0,0,0-2.353-2.01,6.058,6.058,0,0,0-5.212.355,5.546,5.546,0,0,0-2.462,3.1,5.979,5.979,0,0,0-.091,2.074,6.725,6.725,0,0,1-.215,2.8,3.825,3.825,0,0,1-3.678,2.5,4.252,4.252,0,0,1-3.414-1.684c-1.344-1.854-.888-5-.615-6.875a13.57,13.57,0,0,1,2.219-5.387c3.028-4.508,9.09-6.576,14.739-5.014a12.874,12.874,0,0,1,9.59,9.89l0,.014a14.7,14.7,0,0,1-1.7,9.894,20.889,20.889,0,0,1-3.313,4.462l-4.571,4.418A5.694,5.694,0,0,1,1610.84,217.137Zm6.553-15.242h.113l-.626,1.067a7,7,0,0,1-1.015,1.288l-5.966,5.905c-1.193,1.2-1.763,2.328-1.686,3.332a2.348,2.348,0,0,0,.81,1.58c2.187,1.705,4.455-.418,4.551-.509l4.556-4.4a19.514,19.514,0,0,0,3.078-4.155,13.312,13.312,0,0,0,1.547-8.955,11.464,11.464,0,0,0-8.556-8.8c-5.085-1.407-10.506.424-13.205,4.443a12.134,12.134,0,0,0-1.992,4.818c-.224,1.538-.645,4.442.361,5.829a2.758,2.758,0,0,0,2.267,1.1h.058a2.4,2.4,0,0,0,2.282-1.565,5.583,5.583,0,0,0,.135-2.234,7.124,7.124,0,0,1,.15-2.579,6.976,6.976,0,0,1,3.106-3.9,7.505,7.505,0,0,1,6.524-.412,8.261,8.261,0,0,1,2.915,2.473,5.786,5.786,0,0,1,1.039,3.417A6.416,6.416,0,0,1,1617.394,201.894Z" transform="translate(-1597.3 -186.369)"/></g></g><rect class="c" width="40" height="40" transform="translate(0 -0.279)"/></g></svg>