<svg xmlns="http://www.w3.org/2000/svg" width="165.643" height="262.692" viewBox="0 0 165.643 262.692"><defs><style>.a{fill:#fff;}.b,.d{fill:none;}.b{stroke:#fff;}.c{stroke:none;}</style></defs><g transform="translate(-219.5 -587.5)"><g transform="translate(196 563.5)"><g transform="translate(24 24)"><g transform="translate(15.24 24.765)"><path class="a" d="M480.269,103.115a6.986,6.986,0,0,1-7.08-7.3V73.051a7.084,7.084,0,1,1,14.161,0V95.817a6.955,6.955,0,0,1-7.08,7.3m1.361-30.445a1.366,1.366,0,1,0-2.724,0V96.2a1.366,1.366,0,1,0,2.724,0Z" transform="translate(-459.403 -65.753)"/><path class="a" d="M506.113,102.912h-7.407V66.639h7.407c3.431,0,6.59,2.015,6.59,7.08v22.33c0,5.065-3.159,6.863-6.59,6.863m.98-29.193c0-1.253-.49-1.852-1.47-1.852h-1.308V97.738h1.308c.98,0,1.47-.6,1.47-1.906Z" transform="translate(-469.673 -66.094)"/><path class="a" d="M530.507,103.115a6.986,6.986,0,0,1-7.08-7.3V73.051a7.084,7.084,0,1,1,14.161,0V95.817a6.955,6.955,0,0,1-7.08,7.3m1.361-30.445a1.366,1.366,0,1,0-2.723,0V96.2a1.366,1.366,0,1,0,2.723,0Z" transform="translate(-479.426 -65.753)"/><path class="a" d="M554.731,103.115c-4.357,0-7.026-2.724-7.026-7.57V91.732h4.9V95.98c0,1.307.6,2.179,1.852,2.179,1.2,0,1.8-.818,1.8-2.179,0-3.268-1.307-5.828-3.431-9.476-2.124-3.377-5.011-8.388-5.011-12.582,0-4.52,2.342-8.169,7.244-8.169,3.812,0,6.372,2.778,6.372,7.57V77.3h-4.847v-4.52c0-1.2-.654-1.852-1.525-1.852a1.649,1.649,0,0,0-1.689,1.852c0,4.193,1.253,5.663,3.54,9.694,2.4,4.085,4.793,8.388,4.793,12.636,0,5.664-3.431,8.006-6.971,8.006" transform="translate(-489.002 -65.753)"/><path class="a" d="M458.66,168.59c-4.03,0-6.481-2.669-6.481-6.971v-8.006h3.7v8.169c0,1.961.817,3.05,2.669,3.05s2.614-1.089,2.614-3.05v-30.01h3.867v29.683c0,4.249-2.233,7.135-6.372,7.135" transform="translate(-451.307 -86.302)"/><path class="a" d="M484.2,168.59c-3.976,0-6.863-2.832-6.863-7.3V131.772h3.922v29.737c0,2.233.98,3.377,3,3.377s3-1.144,3-3.377V131.772h3.813v29.519c0,4.466-2.941,7.3-6.863,7.3" transform="translate(-461.003 -86.302)"/><path class="a" d="M515.858,167.7l-1.035-2.178a4.973,4.973,0,0,1-4.847,2.723c-3.486,0-6.318-2.669-6.318-7.461V138.347c0-4.248,2.723-7.461,6.971-7.461s6.59,3.05,6.59,7.461v4.9h-3.595v-5.555a2.84,2.84,0,0,0-3-3.05,2.926,2.926,0,0,0-3.051,3.1v23.637c0,1.851.927,3.322,3.051,3.322a3,3,0,0,0,3.1-3.322v-8.279h-2.886v-3.431h6.7V167.7Z" transform="translate(-471.626 -85.954)"/><path class="a" d="M538.508,168.045l-.98-7.843h-5.011l-1.144,7.843h-3.7l5.5-36.273h4.085l5.283,36.273Zm-3.377-27.668-2.124,16.175h4.03Z" transform="translate(-481.104 -86.298)"/><path class="a" d="M569.794,168.045V140.6l-.871,6.318L565.6,168.045h-3.649l-3.431-21.132-.872-6.318v27.45h-3.486V131.772h5.61l3.268,22.439.871,6.318.871-6.318L568,131.772h5.446v36.273Z" transform="translate(-491.591 -86.298)"/><path class="a" d="M596.841,168.248c-4.249,0-6.972-3.159-6.972-7.57V138.457c0-4.357,2.723-7.571,6.972-7.571s6.971,3.213,6.971,7.571v22.221c0,4.411-2.724,7.57-6.971,7.57m3.1-30.336a2.988,2.988,0,0,0-3.1-3.268,2.947,2.947,0,0,0-3.051,3.268v23.31c0,1.906,1.035,3.268,3.051,3.268a2.961,2.961,0,0,0,3.1-3.268Z" transform="translate(-505.634 -85.954)"/><path class="a" d="M622.393,168.248c-4.248,0-6.917-2.941-6.917-7.135v-4.139h3.813v3.976c0,2.4,1.144,3.976,3.05,3.976,2.178,0,3.159-1.416,3.159-3.7,0-3.486-1.307-6.426-4.14-10.076-2.559-3.268-5.555-8.115-5.555-12.363,0-4.521,2.233-7.9,6.862-7.9,3.922,0,6.481,2.941,6.481,7.189v4.3h-3.7V138.4c0-2.505-.925-3.976-2.886-3.976-1.906,0-2.941,1.2-2.941,3.322,0,3.867,1.362,6.318,4.575,10.566,3.159,4.085,5.119,7.9,5.119,12.037,0,5.773-3.594,7.9-6.917,7.9" transform="translate(-515.733 -85.954)"/><path class="a" d="M640.286,191.51v-1.144c1.2,0,1.8-.98,1.8-3h-1.47v-5.447h3.267v4.9c0,2.778-.98,4.684-3.594,4.684" transform="translate(-525.627 -105.949)"/><path class="a" d="M460.455,202.406v30.772h-5.609V202.406h-4.085v-5.5H464.54v5.5Z" transform="translate(-450.761 -106.493)"/><path class="a" d="M480.269,233.381a6.986,6.986,0,0,1-7.08-7.3V203.317a7.084,7.084,0,1,1,14.161,0v22.766a6.955,6.955,0,0,1-7.08,7.3m1.361-30.445a1.366,1.366,0,1,0-2.724,0v23.528a1.366,1.366,0,1,0,2.724,0Z" transform="translate(-459.403 -106.155)"/><path class="a" d="M506.113,233.178h-7.407V196.9h7.407c3.431,0,6.59,2.015,6.59,7.08v22.33c0,5.065-3.159,6.863-6.59,6.863m.98-29.193c0-1.253-.49-1.852-1.47-1.852h-1.308V228h1.308c.98,0,1.47-.6,1.47-1.906Z" transform="translate(-469.673 -106.493)"/><path class="a" d="M530.507,233.381a6.986,6.986,0,0,1-7.08-7.3V203.317a7.084,7.084,0,1,1,14.161,0v22.766a6.955,6.955,0,0,1-7.08,7.3m1.361-30.445a1.366,1.366,0,1,0-2.723,0v23.528a1.366,1.366,0,1,0,2.723,0Z" transform="translate(-479.426 -106.155)"/><path class="a" d="M554.731,233.381c-4.357,0-7.026-2.724-7.026-7.57V222h4.9v4.248c0,1.307.6,2.179,1.852,2.179,1.2,0,1.8-.817,1.8-2.179,0-3.268-1.307-5.828-3.431-9.476-2.124-3.377-5.011-8.388-5.011-12.582,0-4.52,2.342-8.169,7.244-8.169,3.812,0,6.372,2.778,6.372,7.57v3.976h-4.847v-4.52c0-1.2-.654-1.852-1.525-1.852a1.649,1.649,0,0,0-1.689,1.852c0,4.193,1.253,5.663,3.54,9.694,2.4,4.085,4.793,8.388,4.793,12.636,0,5.664-3.431,8.006-6.971,8.006" transform="translate(-489.002 -106.155)"/><path class="a" d="M466.094,297.9l-.708-2.451a5.7,5.7,0,0,1-5.119,3.159c-4.739,0-7.734-3.431-7.734-8.169V269.09c0-4.3,3.595-8.115,8.769-8.115a8.173,8.173,0,0,1,8.551,8.115v5.992h-6.59v-6.1a1.624,1.624,0,0,0-1.852-1.688,1.605,1.605,0,0,0-1.8,1.688v21.731a1.881,1.881,0,0,0,3.758,0v-5.936h-1.852v-4.9h8.605V297.9Z" transform="translate(-451.444 -126.29)"/><path class="a" d="M492.876,298.312l-.49-5.828h-4.139l-.6,5.828H481.33l5.282-36.273h8.061l5.229,36.273Zm-2.287-25.6-1.58,14.106h2.778Z" transform="translate(-462.54 -126.7)"/><path class="a" d="M460.455,72.14v30.772h-5.609V72.14h-4.085v-5.5H464.54v5.5Z" transform="translate(-450.761 -66.094)"/><path class="a" d="M524.847,298.311l-4.63-14.869-1.634-5.065v19.934h-6.155V262.038h6.427l4.194,14.869,1.47,5.119V262.038h6.1v36.273Z" transform="translate(-475.106 -126.7)"/><path class="a" d="M554.279,298.312l-.49-5.828H549.65l-.6,5.828h-6.318l5.283-36.273h8.061l5.228,36.273Zm-2.287-25.6-1.58,14.106h2.778Z" transform="translate(-487.073 -126.7)"/><path class="a" d="M591.513,298.311V272.278l-1.144,8.605-2.506,17.428H583.4l-2.287-17.428-1.034-8.605v26.033h-6.155V262.038h9.2l2.233,14.215.817,7.353.818-7.353,2.178-14.215h9.041v36.273Z" transform="translate(-499.445 -126.7)"/><path class="a" d="M625.186,298.609c-4.956,0-8.823-3.431-8.823-8.388V269.308c0-4.956,3.867-8.333,8.823-8.333,4.9,0,8.769,3.377,8.769,8.333v20.914c0,4.957-3.867,8.388-8.769,8.388m1.634-29.737a1.529,1.529,0,0,0-1.634-1.579,1.574,1.574,0,0,0-1.689,1.579v21.785a1.574,1.574,0,0,0,1.689,1.58,1.53,1.53,0,0,0,1.634-1.58Z" transform="translate(-516.408 -126.29)"/><path class="a" d="M655.271,298.609c-5.392,0-8.605-3.159-8.605-8.551V286.9h6.045v3.377a2.153,2.153,0,0,0,2.233,2.451c1.416,0,2.124-.871,2.124-2.4,0-2.941-1.742-5.174-4.194-8.224-2.723-3.05-6.045-7.407-6.045-11.928,0-4.956,2.887-9.2,8.769-9.2,4.684,0,7.843,3.377,7.843,8.5v3.159H657.4v-3.595a1.829,1.829,0,0,0-1.8-2.069,1.973,1.973,0,0,0-2.016,2.124c0,3.486,1.743,5.01,4.249,8.333,2.94,3.54,5.991,7.353,5.991,12.036,0,5.719-3.7,9.15-8.551,9.15" transform="translate(-528.085 -126.29)"/></g><g class="b"><rect class="c" width="165.143" height="221"/><rect class="d" x="0.5" y="0.5" width="164.143" height="220"/></g></g></g><path class="b" d="M-13673.334,13251v18.278h31.476" transform="translate(13893.334 -12420.639)"/><path class="a" d="M-35.467,1.376V-1.187h-2.062V1.432a1.927,1.927,0,0,1-2.09,2.118,1.925,1.925,0,0,1-2.118-2.034V-9.408a1.939,1.939,0,0,1,2.118-2.034,1.94,1.94,0,0,1,2.09,2.118v2.592h2.062V-9.269A3.949,3.949,0,0,0-39.7-13.56,4.164,4.164,0,0,0-44.05-9.1V1.209A4.15,4.15,0,0,0-39.7,5.668,3.949,3.949,0,0,0-35.467,1.376ZM-24.878,1.1V-8.99c0-2.619-1.533-4.57-4.375-4.57s-4.375,1.951-4.375,4.57V1.1c0,2.647,1.533,4.57,4.375,4.57S-24.878,3.745-24.878,1.1Zm-2.313.251a1.971,1.971,0,0,1-2.062,2.2,1.957,1.957,0,0,1-2.062-2.2V-9.241a1.97,1.97,0,0,1,2.062-2.2,1.984,1.984,0,0,1,2.062,2.2ZM-13.62,5.333V-13.226h-2.2V-.714l-1.143-3.149-3.65-9.363h-1.979V5.333h2.2V-7.011l1.226,3.121,3.873,9.224ZM-3.5-11.08v-2.146H-12.06v2.146h3.149V5.333H-6.6V-11.08ZM7.057,5.5V3.856c-.474,0-.641-.223-.641-.725V-.825a2.7,2.7,0,0,0-2.062-2.9c1.477-.362,1.979-1.365,1.979-2.954V-9.492c0-2.564-1.338-3.734-3.706-3.734H-1.916V5.333H.425V-2.8h2.09C3.6-2.8,4.1-2.079,4.1-.964V3.271C4.1,5,4.744,5.5,6.444,5.5ZM4.019-6.482c0,1.17-.613,1.811-1.644,1.811H.425v-6.465H2.6c1,0,1.421.585,1.421,1.561ZM17.284,1.1V-8.99c0-2.619-1.533-4.57-4.375-4.57S8.534-11.609,8.534-8.99V1.1c0,2.647,1.533,4.57,4.375,4.57S17.284,3.745,17.284,1.1Zm-2.313.251a1.971,1.971,0,0,1-2.062,2.2,1.957,1.957,0,0,1-2.062-2.2V-9.241a1.97,1.97,0,0,1,2.062-2.2,1.984,1.984,0,0,1,2.062,2.2ZM26.73,5.333V3.188H21.909V-13.226H19.6V5.333ZM40.5-6.12V-9.408c0-2.564-1.365-3.818-3.734-3.818H32.248V5.333h2.313V-2.33h2.2C39.131-2.33,40.5-3.584,40.5-6.12Zm-2.341.139c0,1.031-.39,1.644-1.365,1.644H34.561v-6.8H36.79c.975,0,1.365.557,1.365,1.616ZM50.11,5.333,46.655-13.226H44.2L40.719,5.333h2.2L43.7,1.07h3.288l.752,4.264ZM46.627-.992H44.063l1.31-7.942ZM60.532,5.333V-13.226h-2.2V-.714L57.188-3.863l-3.65-9.363H51.559V5.333h2.2V-7.011L54.987-3.89,58.86,5.333Zm9.753,0V3.215h-4.96V-3.305H68.92V-5.339H65.325v-5.768h4.96v-2.118H63.012V5.333Zm9.084,0V3.188H74.549V-13.226H72.236V5.333Z" transform="translate(304.742 844.524)"/></g></svg>