<svg xmlns="http://www.w3.org/2000/svg" width="32" height="32" viewBox="0 0 32 32"><defs><style>.a{opacity:0.997;}.b{fill:#fff;}.c{fill:none;}</style></defs><g class="a" transform="translate(4.747 0)"><g transform="translate(7.152 25.138)"><path class="b" d="M1610.081,226.163h-.043a3.255,3.255,0,0,1-2.228-5.587,3.3,3.3,0,0,1,2.314-.923l.407.034a3.254,3.254,0,0,1-.45,6.476Zm-.062-5.322a2.12,2.12,0,1,0,.093,0Z" transform="translate(-1606.826 -219.653)"/></g><g transform="translate(0)"><path class="b" d="M1608.208,211.156a3.451,3.451,0,0,1-2.161-.771,3.039,3.039,0,0,1-1.1-2.085,4.71,4.71,0,0,1,1.687-3.566l4.807-4.759a4.439,4.439,0,0,0,.444-.518l.191-.314a4.053,4.053,0,0,0,.623-2.1,3.535,3.535,0,0,0-.628-2.083,5.483,5.483,0,0,0-1.9-1.619,4.88,4.88,0,0,0-4.2.286,4.468,4.468,0,0,0-1.983,2.494,4.817,4.817,0,0,0-.073,1.671,5.419,5.419,0,0,1-.173,2.256,3.081,3.081,0,0,1-2.963,2.011,3.425,3.425,0,0,1-2.751-1.356c-1.083-1.494-.715-4.026-.5-5.539a10.647,10.647,0,0,1,13.662-8.38,10.371,10.371,0,0,1,7.726,7.967l0,.011a11.842,11.842,0,0,1-1.371,7.97,16.824,16.824,0,0,1-2.669,3.595l-3.682,3.56A4.587,4.587,0,0,1,1608.208,211.156Zm5.279-12.279h.091l-.5.86a5.641,5.641,0,0,1-.817,1.038l-4.806,4.757a3.675,3.675,0,0,0-1.359,2.684,1.892,1.892,0,0,0,.653,1.273c1.762,1.374,3.589-.337,3.666-.41l3.67-3.547a15.722,15.722,0,0,0,2.48-3.347,10.724,10.724,0,0,0,1.246-7.214,9.236,9.236,0,0,0-6.893-7.089,9.507,9.507,0,0,0-12.243,7.461c-.181,1.239-.519,3.578.291,4.7a2.222,2.222,0,0,0,1.827.889h.047a1.936,1.936,0,0,0,1.838-1.26,4.5,4.5,0,0,0,.109-1.8,5.736,5.736,0,0,1,.12-2.078,5.62,5.62,0,0,1,2.5-3.141,6.047,6.047,0,0,1,5.256-.332,6.656,6.656,0,0,1,2.348,1.993,4.661,4.661,0,0,1,.837,2.753A5.167,5.167,0,0,1,1613.488,198.876Z" transform="translate(-1597.3 -186.369)"/></g></g><rect class="c" width="32" height="32"/></svg>