<svg xmlns="http://www.w3.org/2000/svg" width="72" height="72" viewBox="0 0 72 72"><defs><style>.a,.b{fill:none;}.a{stroke:#0e0c5a;stroke-width:1.5px;}</style></defs><g transform="translate(-72 -225)"><path class="a" d="M20,22.5A11.25,11.25,0,1,0,8.75,11.25,11.253,11.253,0,0,0,20,22.5ZM30,25H25.7A13.6,13.6,0,0,1,14.3,25H10A10,10,0,0,0,0,35v1.25A3.751,3.751,0,0,0,3.75,40h32.5A3.751,3.751,0,0,0,40,36.25V35A10,10,0,0,0,30,25Z" transform="translate(88 241)"/><circle class="b" cx="36" cy="36" r="36" transform="translate(72 225)"/></g></svg>