<svg xmlns="http://www.w3.org/2000/svg" width="73" height="73" viewBox="0 0 73 73"><defs><style>.a,.b{fill:none;}.b{stroke:#290b6d;stroke-width:2px;}</style></defs><g transform="translate(1 1)"><rect class="a" width="72" height="72"/><path class="b" d="M35.432,39.862A19.931,19.931,0,1,0,15.5,19.931,19.936,19.936,0,0,0,35.432,39.862Zm17.716,4.429H45.522a24.093,24.093,0,0,1-20.18,0H17.716A17.715,17.715,0,0,0,0,62.007v2.215a6.645,6.645,0,0,0,6.644,6.644H64.221a6.645,6.645,0,0,0,6.644-6.644V62.007A17.715,17.715,0,0,0,53.149,44.291Z"/></g></svg>